<?xml version="1.0" standalone="no"?>
<!DOCTYPE svg PUBLIC "-//W3C//DTD SVG 1.1//EN" "http://www.w3.org/Graphics/SVG/1.1/DTD/svg11.dtd" >
<svg xmlns="http://www.w3.org/2000/svg">
<metadata>
Created by FontForge 20120731 at Fri Jan 29 14:39:43 2016
 By Ads
</metadata>
<defs>
<font id="iconfont" horiz-adv-x="1024" >
  <font-face 
    font-family="iconfont"
    font-weight="500"
    font-stretch="normal"
    units-per-em="1024"
    panose-1="2 0 6 3 0 0 0 0 0 0"
    ascent="896"
    descent="-128"
    x-height="792"
    bbox="0 -128 1138 896"
    underline-thickness="50"
    underline-position="-100"
    unicode-range="U+0078-F021D"
  />
<missing-glyph horiz-adv-x="374" 
d="M34 0v682h272v-682h-272zM68 34h204v614h-204v-614z" />
    <glyph glyph-name=".notdef" horiz-adv-x="374" 
d="M34 0v682h272v-682h-272zM68 34h204v614h-204v-614z" />
    <glyph glyph-name=".null" horiz-adv-x="0" 
 />
    <glyph glyph-name="nonmarkingreturn" horiz-adv-x="341" 
 />
    <glyph glyph-name="x" unicode="x" horiz-adv-x="1001" 
d="M281 543q-27 -1 -53 -1h-83q-18 0 -36.5 -6t-32.5 -18.5t-23 -32t-9 -45.5v-76h912v41q0 16 -0.5 30t-0.5 18q0 13 -5 29t-17 29.5t-31.5 22.5t-49.5 9h-133v-97h-438v97zM955 310v-52q0 -23 0.5 -52t0.5 -58t-10.5 -47.5t-26 -30t-33 -16t-31.5 -4.5q-14 -1 -29.5 -0.5
t-29.5 0.5h-32l-45 128h-439l-44 -128h-29h-34q-20 0 -45 1q-25 0 -41 9.5t-25.5 23t-13.5 29.5t-4 30v167h911zM163 247q-12 0 -21 -8.5t-9 -21.5t9 -21.5t21 -8.5q13 0 22 8.5t9 21.5t-9 21.5t-22 8.5zM316 123q-8 -26 -14 -48q-5 -19 -10.5 -37t-7.5 -25t-3 -15t1 -14.5
t9.5 -10.5t21.5 -4h37h67h81h80h64h36q23 0 34 12t2 38q-5 13 -9.5 30.5t-9.5 34.5q-5 19 -11 39h-368zM336 498v228q0 11 2.5 23t10 21.5t20.5 15.5t34 6h188q31 0 51.5 -14.5t20.5 -52.5v-227h-327z" />
    <glyph glyph-name="uni3434" unicode="&#x3434;" 
d="M862 -41h-667q-38 0 -61.5 30t-18.5 71l77 519q3 27 26 45.5t53 18.5h44q4 96 63.5 150t148.5 54q58 0 104.5 -23t75.5 -70t32 -111h47q29 0 52.5 -18.5t26.5 -45.5l77 -519q5 -41 -18.5 -71t-61.5 -30zM284 494q0 -21 15.5 -36.5t36.5 -15.5q7 0 12.5 1.5t11 4t10 6t8 8
t6 9.5t4 11t1.5 12q0 15 -7 27t-19 19t-27 7q-33 0 -47 -31q-5 -11 -5 -22zM527 808q-37 0 -68 -10.5t-55.5 -30.5t-39 -52t-16.5 -72h357q-3 80 -53 122.5t-125 42.5zM723 547q-22 0 -37.5 -15.5t-15.5 -37.5q0 -14 7.5 -26t19.5 -19t26 -7q22 0 37 15.5t15 37t-15 37
t-37 15.5z" />
    <glyph glyph-name="uni3435" unicode="&#x3435;" 
d="M849 -43h-277v286h342v-221q0 -6 -1 -11t-2.5 -10t-4 -9.5t-5.5 -8.5t-6.5 -7.5t-7.5 -6.5t-8.5 -5t-9.5 -3.5t-10 -2.5t-10 -1zM572 577q-9 3 -14.5 4.5t-13.5 5t-12 6.5q0 1 -0.5 1.5t-1.5 0.5v-1q-1 0 -1 -1q-2 -2 -4 -3.5t-4.5 -3t-4.5 -3t-4 -2.5l-6 -2q-2 -1 -5 -2
v-263h-360v227q0 17 8.5 32t23.5 24t33 9h151q-28 15 -47 33q-29 27 -43 61t-9 66t28 53q29 28 75 28q31 0 62 -13t57 -37q10 -10 19.5 -21t17 -23t13.5 -25q5 9 10.5 18.5t12 18.5t13.5 17t15 15q53 50 119 50q45 0 75 -28q35 -32 27.5 -85t-52.5 -95q-19 -18 -46 -33h145
q27 0 46 -19t19 -46v-227h-342v263zM435 748q-16 15 -35.5 23.5t-38.5 8.5q-20 0 -30 -9l-1 -1q-1 -1 -2.5 -3t-2 -4.5t-1.5 -6t-1 -6.5q0 -33 33 -63q21 -20 53 -34t58 -14q6 0 10 1t5 2h2q3 6 -1 23.5t-16.5 41.5t-31.5 41zM578 641l2 -1q2 0 5.5 -0.5t7.5 -0.5
q26 0 58 14t54 34q11 11 19 23t10.5 21.5t2.5 17.5q0 4 -0.5 7.5t-1.5 6t-2 4.5t-2 2.5t-2 1.5q-10 9 -29 9t-38.5 -8.5t-35.5 -23.5q-28 -25 -41 -60t-7 -47zM501 -43h-295q-27 0 -46 19t-19 46v221h360v-286z" />
    <glyph glyph-name="uni344E" unicode="&#x344e;" horiz-adv-x="1086" 
d="M321 504l455 2l-218 -550zM373 704l347 -3l62 -134l-451 3zM274 574l-274 114l147 110l176 -91zM0 622l260 -116l279 -546zM842 507l243 126l-512 -670zM837 575l-69 141l157 87l135 -114zM368 771l-59 16l-112 62l131 47h428l130 -54l-125 -61l-42 -10h-351z" />
    <glyph glyph-name="uni3464" unicode="&#x3464;" 
d="M881 376l-483 520h-223l483 -520l-483 -484h223z" />
    <glyph glyph-name="uni3465" unicode="&#x3465;" 
d="M658 -108h223l-483 484l483 520h-223l-483 -520z" />
    <glyph glyph-name="uni3473" unicode="&#x3473;" 
d="M381 90v155h544v-155h-544zM381 478h544v-155h-544v155zM381 711h544v-155h-544v155zM148 245h156v-155h-156v155zM148 478h156v-155h-156v155zM148 711h156v-155h-156v155z" />
    <glyph glyph-name="uni3476" unicode="&#x3476;" 
d="M891 401q36 -43 1 -82l-254 -255q-8 -6 -17.5 -9t-19 -2t-18 4t-14.5 9q-92 92 -164 165l-60 61q-31 30 -54 53q-24 25 -38 39l-16 15q0 1 -1 2l-2 2q-1 1 -2 3q-2 3 -4 6.5t-4 7.5q-4 9 -7 19.5t-3 22.5v15v29q0 17 0.5 37.5t0.5 41.5q1 51 2 111q1 5 1.5 9.5t1.5 9.5
q1 4 2.5 7t3.5 6t5 6q8 8 18 11t19 3h248q2 1 12 0h6q2 0 3.5 -0.5t2.5 -1.5q3 0 5.5 -1.5t5.5 -3.5l10 -9zM333 581q21 0 36 15t15 36t-15 36t-36 15t-36.5 -15t-15.5 -36t15.5 -36t36.5 -15zM333 581z" />
    <glyph glyph-name="uni3477" unicode="&#x3477;" 
d="M909 -50h-746q-39 0 -66.5 27.5t-27.5 65.5v435q0 26 12.5 47.5t34 34t47.5 12.5h62l264 202l-2 15q0 17 8 31.5t22.5 22.5t31.5 8q26 0 44 -18t18 -44q0 -16 -8 -30l243 -187h63q38 0 65.5 -27.5t27.5 -66.5v-435q0 -38 -27.5 -65.5t-65.5 -27.5zM569 149h125v24h-99
v177h-26v-201zM390 149l22 61h84l23 -61h30l-82 201h-28l-77 -201h28zM204 326q-8 -13 -8 -28q0 -14 7 -25q1 -2 2 -3.5t2.5 -3t3 -2.5t3 -2.5t3 -2.5t3.5 -2.5t4 -2.5q11 -6 39 -12q27 -7 35 -10q13 -5 18 -12q2 -2 3 -4.5t2 -5.5t1 -6q0 -5 -1.5 -9t-4.5 -8
q-6 -8 -17.5 -12.5t-26.5 -4.5q-8 0 -16 1.5t-14 4.5q-3 1 -5 2l-4 2q-2 1 -3 2l-4 4q-1 1 -2 2.5t-3 2.5q-3 5 -5 11t-3 14l-25 -2q0 -7 1.5 -13t4 -12t5.5 -11q2 -3 4.5 -6t5 -5.5t6 -5t6.5 -3.5l7 -4q18 -8 45 -8q22 0 39 8q4 2 8 4.5t7 5t6 5.5t5 6.5t4 7.5t3 7.5
t1.5 7.5t0.5 8q0 16 -8 28q-3 5 -7 8.5t-8.5 6.5t-10.5 6q-12 5 -44 13q-8 1 -14.5 3t-11.5 4t-8.5 3.5t-5.5 3.5q-4 3 -6 7.5t-2 10.5q0 12 11 21t35 9q23 0 35 -10t14 -28l25 1q-1 18 -10 32q-2 3 -4.5 6.5t-6 6t-7.5 4.5l-8 4q-17 7 -39 7q-20 0 -37 -7q-3 -1 -6 -2.5
t-5 -3.5l-6 -4q-2 -2 -4 -4.5t-4 -5.5zM588 741q-18 -14 -39 -14q-31 0 -50 26l-243 -181h559zM875 173h-122v68h110v24h-110v61h118v24h-145v-201h149v24zM452 329q5 -17 14 -42l21 -55h-68l22 58q7 19 11 39z" />
    <glyph glyph-name="uni3479" unicode="&#x3479;" 
d="M1000 401q-2 13 -12 24.5t-23 19t-29.5 14t-29 9.5t-24.5 6q-33 6 -191 4q-17 30 -48 83q44 39 56 54q11 13 7 21.5t-13 12.5t-20 4h-27h-36h-20q-23 39 -41 70t-34 58t-23 38q-26 41 -68 32q-28 -6 -33 -25q-1 -4 0 -7q3 -28 85 -345h-2h-4h-2q-107 -4 -205 -23
q-69 74 -106 116q-11 12 -21.5 17.5t-17.5 4t-12 -6t-7 -10.5t-2 -11q8 -44 38 -145q-12 -3 -18.5 -7t-6.5 -8h-1h1q0 -3 3 -6t8.5 -5.5t13.5 -4.5q-1 -2 -2 -5t-3 -10.5t-4.5 -15.5t-5.5 -18l-4 -20q-3 -10 -6 -20.5t-5.5 -20t-4 -19t-3.5 -16.5q0 -5 2 -11t7 -10.5t12 -6
t17.5 4t21.5 18.5q37 42 106 116q98 -20 205 -23h4h4q-82 -318 -85 -346q-1 -9 5.5 -17t18.5 -11.5t25 -3.5t27.5 8t24.5 24q11 17 37 61t61 105h20h36h27q11 0 20 4t13 12.5t-7 21.5q-12 16 -56 55q31 52 48 82q78 0 127 1t64 4q21 4 44.5 12t47.5 25t26 36z" />
    <glyph glyph-name="uni347E" unicode="&#x347e;" 
d="M528 850q-92 0 -175 -35.5t-143.5 -95.5t-96 -143.5t-35.5 -175t35.5 -174.5t96 -143.5t143.5 -96t174.5 -35.5t175 35.5t143.5 96t95.5 143.5t35.5 175q0 171 -113 298q-110 123 -272 147q-32 4 -64 4zM793 231q-1 -5 -2 -9.5t-2 -8.5t-2 -7.5t-2 -7.5q-13 -55 -86 -52
h-67q-77 -3 -75 70v157l-75 -2q12 -177 -188 -240q-4 7 -9 15q-6 9 -14 20q-3 3 -5 6t-3 6q-4 5 -6 9q99 31 129 67q34 34 34 112h-25q-9 -1 -17 -1.5t-14.5 -1t-11.5 -1.5q-16 -2 -24 -4l-30 57q31 13 54 36q50 41 99 94h-186v58h239q0 3 -6 19q-5 16 -8 25q-3 11 -5 16
l68 7q1 -3 2 -7.5t3 -9.5q4 -11 8 -27l5 -14l2 -9h218v-58h-260q-38 -38 -71 -69t-61 -54l244 6q-3 4 -7.5 9t-11 11t-13.5 12l-18 18q-8 6 -13 11l40 32q39 -34 79 -69q42 -37 80 -71l-46 -42l-36 36l-79 -2v-140q-1 -19 8.5 -28t29.5 -7h31q21 0 32 7.5t14 23.5q3 23 5 35
q1 8 2 15t1 13q13 -5 29 -12q14 -6 28 -10q-2 -22 -5 -39z" />
    <glyph glyph-name="uni3502" unicode="&#x3502;" horiz-adv-x="1138" 
d="M427 384q-30 0 -56 11t-45 30.5t-30.5 45.5t-11.5 55t11.5 55t30.5 45t45 30.5t56 11.5q29 0 55 -11.5t45 -30.5t30.5 -45t11.5 -55t-11.5 -55t-30.5 -45.5t-45 -30.5t-55 -11zM1138 -128h-1138v1024h1138v-114v-910zM1024 782h-910v-702q17 24 37 47.5t41.5 42.5
t45 31.5t46.5 12.5q29 0 49 -4.5t36 -10.5t30 -14t29.5 -14t35.5 -10.5t48.5 -4.5t49 17t37.5 42.5t34.5 54.5t39 54.5t51.5 42.5t73 17q36 0 69.5 -22.5t62.5 -58t53 -79t42 -85.5v643z" />
    <glyph glyph-name="uniE63F" unicode="&#xe63f;" 
d="M512 637h-31q-115 0 -198 -83q-86 -86 -125 -244q-37 -147 -14 -221q31 -98 178 -98h190h190q147 0 178 98q9 29 9 68t-6 74.5t-17 78.5q-39 158 -125 244q-40 40 -89.5 61.5t-108.5 21.5h-31zM485 777h27h27q6 0 12.5 -0.5t13.5 -0.5q27 -1 50 -2.5t52.5 -4.5t55.5 -8
q44 -7 81.5 -18t65.5 -26q26 -15 47.5 -35t35.5 -44q6 -9 10.5 -18.5t8 -20t6 -21t3.5 -21.5t1 -23q0 -16 -2 -32t-7 -31q-2 -7 -5 -15l-6 -14q-3 -8 -7 -14.5t-8 -13.5q-2 -2 -3.5 -4.5t-3.5 -4t-4 -3.5t-4.5 -3.5t-4.5 -2.5q-12 -6 -26 -4q-15 1 -25 9q-6 4 -10 9t-7 12
q-50 118 -130 181q-82 62 -186 62h-31h-31q-104 0 -186 -62q-80 -63 -130 -181q-6 -13 -17 -21q-3 -3 -7 -4.5t-8.5 -3t-9.5 -1.5q-7 -1 -13.5 0t-12.5 4q-12 6 -20 18q-17 27 -26 57q-5 15 -7 31t-2 32q0 57 29 104q5 9 12.5 18.5t15.5 17.5t17 15.5t18.5 14.5t19.5 13
q12 6 25.5 12t27.5 10.5t30 8.5t31.5 7.5t32.5 5.5q37 6 76.5 9.5t81.5 5.5zM337 377q0 35 14 67.5t37 56t55.5 37.5t68.5 14q29 0 55.5 -9t48 -25t38 -37.5t25 -48.5t8.5 -55q0 -48 -23.5 -88.5t-63.5 -64t-88 -23.5q-83 0 -136 65q-39 49 -39 111z" />
    <glyph glyph-name="uniE650" unicode="&#xe650;" 
d="M512 832q-146 0 -249 -103t-103 -249q0 -53 34 -127.5t76.5 -136.5t98 -130.5t80 -95.5t40.5 -44q9 -10 23 -10h1q14 0 23 11l109 125q219 268 219 408q0 146 -103 249t-249 103zM512 320q-66 0 -113 47t-47 113t47 113t113 47t113 -47t47 -113t-47 -113t-113 -47z" />
    <glyph glyph-name="uniE65E" unicode="&#xe65e;" 
d="M512 832q-185 0 -316.5 -131.5t-131.5 -316.5t131.5 -316.5t316.5 -131.5t316.5 131.5t131.5 316.5t-131.5 316.5t-316.5 131.5zM671 320h-191q-9 0 -16 4.5t-11.5 11.5t-4.5 16v255q0 13 9.5 22.5t22.5 9.5t22.5 -9.5t9.5 -22.5v-223h159q7 0 13 -2.5t10 -7t6.5 -10
t2.5 -12.5t-2.5 -12.5t-6.5 -10t-10 -7t-13 -2.5z" />
    <glyph glyph-name="uniE666" unicode="&#xe666;" 
d="M832 768h-640q-40 0 -68 -28t-28 -68v-512q0 -40 28 -68t68 -28h211l86 -87q10 -9 23 -9t23 9l86 87h211q40 0 68 28t28 68v512q0 40 -28 68t-68 28zM336 384q-20 0 -34 14t-14 34t14 34t34 14t34 -14t14 -34t-14 -34t-34 -14zM528 384q-20 0 -34 14t-14 34t14 34t34 14
t34 -14t14 -34t-14 -34t-34 -14zM720 384q-20 0 -34 14t-14 34t14 34t34 14t34 -14t14 -34t-14 -34t-34 -14z" />
    <glyph glyph-name="uniE670" unicode="&#xe670;" 
d="M891 735q-62 1 -118 12t-94 26.5t-72 36t-51.5 35.5t-32.5 31q-14 16 -33 -1q-19 -20 -45 -40t-70.5 -44t-110 -39.5t-140.5 -16.5q-2 -6 -5 -18.5t-8.5 -52.5t-7.5 -80.5t3 -100t18.5 -116t43 -123t72 -125.5t110 -120t152.5 -110h3q89 51 160 114q7 6 18.5 16t46 48.5
t67.5 82.5q40 58 66.5 121.5t38 117.5t14.5 110t0 94.5t-9.5 75.5t-10 48.5t-5.5 17.5zM245 653q-10 -3 -21 -5.5t-22 -4.5q-6 -29 -7 -62t6 -97q1 -9 -4 -16t-13 -8q-1 0 -2 -0.5t-2 -0.5q-7 0 -13 5t-7 13q-5 30 -6.5 60.5t0 51.5t4 41t4 27t2.5 11q4 14 18 15q1 0 8.5 1
t19.5 4l23 4q5 2 10.5 1t9.5 -5t6 -9q1 -4 1 -7t-1 -6t-3 -5.5t-5 -4.5t-6 -3z" />
    <glyph glyph-name="uniE674" unicode="&#xe674;" 
d="M982 370q0 35 -25 59.5t-60 24.5h-27l-60 290q-2 8 -5.5 14.5t-8 11t-11 7t-13.5 2.5h-180l-1 1v23q0 10 -6.5 16.5t-15.5 6.5h-89q-6 0 -11 -3t-8.5 -8.5t-3.5 -11.5v-21v-3h-177q-12 0 -20.5 -5t-13 -12t-6.5 -18l-67 -287v-1v-2h-40q-35 0 -60 -24.5t-25 -59.5
l-16 -198q0 -16 6 -31.5t16.5 -26.5t25.5 -18t31 -8v-75q0 -21 16 -32t42 -12h41q58 0 58 44v75h498v-75q0 -44 58 -44h41q59 0 59 44v76q31 3 52.5 27t21.5 56zM207.5 201q-21.5 0 -36.5 15.5t-15 36.5q0 9 2.5 16.5t7.5 14t11.5 11.5t14 7.5t16.5 2.5q21 0 36.5 -15
t15.5 -36.5t-15.5 -37t-37 -15.5zM774 472h-501q-9 0 -15 6t-6 15l46 201q1 4 2.5 7t3 5.5t3.5 4t4.5 2.5t5.5 1.5t7 0.5h406q12 0 19.5 -5t10.5 -16l35 -201q0 -9 -6 -15t-15 -6zM840 201q-21 0 -36.5 15.5t-15.5 37t15.5 36.5t36.5 15t36.5 -15t15.5 -37q0 -14 -7 -26
t-19 -19t-26 -7z" />
    <glyph glyph-name="uniE675" unicode="&#xe675;" 
d="M717 429h-122l64 352q0 9 -7 10.5t-12 -4.5l-339 -429q-3 -3 -2.5 -7.5t3 -8t5.5 -3.5h122l-64 -352q0 -9 7 -10.5t12 4.5l339 429q3 2 4 5.5t0.5 6.5t-3.5 5t-7 2z" />
    <glyph glyph-name="uniE676" unicode="&#xe676;" 
d="M838 541q0 89 -43.5 164.5t-119 119.5t-164.5 44v0v0v0q-134 0 -229.5 -93.5t-97.5 -227.5v-7q3 -68 22.5 -140.5t47 -131.5t64 -118.5t66.5 -99.5t62.5 -77.5t44.5 -50.5t20 -20v0v0q8 7 20 20t44.5 50.5t62.5 77.5t67 99.5t64 118.5t46.5 131.5t22.5 140.5zM371 546
q0 58 41 99.5t99 41.5t99 -41.5t41 -99.5t-41 -99.5t-99 -41.5q-38 0 -70.5 19t-51 51.5t-18.5 70.5z" />
    <glyph glyph-name="uniE678" unicode="&#xe678;" 
d="M926 47q17 29 17 55.5t-15.5 49t-46.5 46.5q-29 22 -53 35.5t-49.5 21.5t-47.5 1.5t-40 -26.5l-3 -2q-1 -2 -6 -5t-11 -4.5t-16 -2t-21.5 1.5t-28 8.5t-34.5 17t-41 28.5t-48 42q-51 49 -80.5 90.5t-35.5 67t-4.5 44t8.5 25.5l7 7q17 18 24.5 36t8 31.5t-9.5 34
t-18.5 33.5t-28.5 38q-4 7 -6 10q-28 37 -54.5 54t-59 12.5t-69.5 -34.5q-42 -33 -49 -87.5t12.5 -110.5t56 -117t73.5 -107.5t73 -83.5l47 -47q29 -29 99 -89t115 -84l54 -31q30 -15 59.5 -25t59 -14t57 0.5t49.5 17.5l2 1q1 1 4.5 3.5t7.5 5.5t9 8t10.5 11t11.5 15t11 18z
" />
    <glyph glyph-name="uniE67A" unicode="&#xe67a;" 
d="M878 778h-732q-36 0 -62 -25.5t-26 -61.5v-558q0 -34 23 -59t56 -28h9h23v-49q0 -14 12 -17.5t22 3.5t19.5 13t18.5 11q56 33 84 39h96h457q36 0 61.5 25.5t25.5 61.5v558q0 8 -1.5 15.5t-4 14.5t-6 13.5t-8.5 12.5t-11 10.5t-12.5 8.5t-13.5 6.5t-14.5 4t-15.5 1.5z
M244 365q-13 0 -24 5t-19.5 13t-13.5 19.5t-5 24.5q0 25 18 43t44 18q17 0 31 -8t22 -22.5t8 -30.5q0 -26 -18 -44t-43 -18zM514.5 365q-12.5 0 -24 5t-19.5 13t-13 19.5t-5 24.5q0 25 18 43t44 18q10 0 19 -3t17 -8.5t13.5 -13.5t8.5 -17t3 -19q0 -13 -5 -24.5t-13 -19.5
t-19.5 -13t-24 -5zM780 365q-17 0 -31 8.5t-22.5 22.5t-8.5 31q0 25 18 43t44 18q12 0 23.5 -5t19.5 -13t13 -19.5t5 -23.5q0 -26 -18 -44t-43 -18z" />
    <glyph glyph-name="uniE67B" unicode="&#xe67b;" 
d="M511 698q-80 0 -157 -17t-137.5 -46t-106.5 -67t-71 -81t-25 -86q0 -54 39.5 -107.5t105.5 -95.5t159 -68.5t192.5 -26.5t193 26.5t159.5 68.5t105.5 95.5t39.5 107.5q0 35 -18 71.5t-50 69.5t-78 61.5t-100 49.5t-119 33t-132 12zM511 253q-61 0 -104.5 43t-43.5 104.5
t43.5 105t104.5 43.5t104.5 -43.5t43.5 -105t-43.5 -104.5t-104.5 -43zM426 379q-7 0 -12 5t-5 12q-1 23 8 43t26 35q5 4 12.5 3.5t11.5 -5.5q3 -4 4 -8.5t-0.5 -8.5t-4.5 -7q-24 -20 -23 -51q0 -3 -1 -6.5t-3.5 -6t-5.5 -3.5t-7 -2z" />
    <glyph glyph-name="uniE67C" unicode="&#xe67c;" 
d="M599 65l12 193l373 -184v112l-366 343v215q0 47 -31.5 95t-71.5 48q-27 0 -51.5 -24t-38 -57t-13.5 -62v-215l-367 -343v-112l367 184l15 -209q0 -5 1 -13v-2l-66 -60v-67l154 51l2 1l148 -52v67l-69 62z" />
    <glyph glyph-name="uniE67D" unicode="&#xe67d;" 
d="M887 458q-31 -31 -73 -42.5t-84 0t-73 42.5l-64 64q-48 47 -48 114.5t48 115.5l64 64q23 23 53.5 35t61.5 12t61.5 -12t53.5 -35l64 -64q47 -48 47 -115.5t-47 -114.5zM445 592q0 -45 -22 -82.5t-59.5 -59t-81.5 -21.5h-90q-68 0 -115.5 47.5t-47.5 115.5v90
q0 44 22 81.5t59 59.5t82 22h90q67 0 115 -48t48 -115v-90zM980 68q0 -27 -8.5 -51.5t-23.5 -44.5t-35 -35t-44.5 -23.5t-51.5 -8.5h-90q-44 0 -81.5 22t-59.5 59.5t-22 81.5v90q0 27 8.5 51.5t23.5 44.5t35 35t44.5 23.5t51.5 8.5h90q67 0 115 -47.5t48 -115.5v-90zM445 68
q0 -27 -8.5 -51.5t-23.5 -44.5t-35 -35t-44.5 -23.5t-51.5 -8.5h-90q-68 0 -115.5 47.5t-47.5 115.5v90q0 68 47.5 115.5t115.5 47.5h90q33 0 63 -13t52 -35t35 -52t13 -63v-90z" />
    <glyph glyph-name="uniE67E" unicode="&#xe67e;" 
d="M688 147q-48 0 -85 -34l-273 209q14 17 22.5 38t8.5 44q0 46 -30 81l257 196q38 -51 100 -51q52 0 89 37t37 89t-37 88.5t-89 36.5q-34 0 -62.5 -17t-45.5 -45.5t-17 -62.5q0 -20 8 -42l-269 -204q-31 20 -66 20q-34 0 -63 -17t-46 -46t-17 -63q0 -52 37 -88.5t89 -36.5
q34 0 64 18l280 -213q-5 -9 -9 -19t-6 -21t-2 -22q0 -52 36.5 -89t88.5 -37t89 37t37 89t-37 88.5t-89 36.5z" />
    <glyph glyph-name="uniE67F" unicode="&#xe67f;" 
d="M267 382q0 -44 -31 -75.5t-75.5 -31.5t-75.5 31.5t-31 75.5t31 75.5t75.5 31.5t75.5 -31.5t31 -75.5zM619 382q0 -44 -31 -75.5t-75 -31.5t-75.5 31.5t-31.5 75.5t31.5 75.5t75.5 31.5t75 -31.5t31 -75.5zM972 382q0 -44 -31.5 -75.5t-75.5 -31.5t-75.5 31.5t-31.5 75.5
t31.5 75.5t75.5 31.5t75.5 -31.5t31.5 -75.5z" />
    <glyph glyph-name="uniE686" unicode="&#xe686;" 
d="M765 836q-9 9 -20 15.5t-22.5 10.5t-23.5 5.5t-24 0t-23.5 -5.5t-22 -10.5t-20.5 -15.5l-93 -94l-94 94q-16 15 -36.5 23.5t-41 8.5t-41 -8.5t-36.5 -23.5q-32 -33 -32 -78.5t32 -77.5l25 -24h57l-54 53q-14 14 -18.5 32t0 36t18.5 32q21 21 50 21t49 -21l123 -123
l123 123q20 21 49.5 21t49.5 -21q14 -14 18.5 -32t0 -36t-18.5 -32l-53 -53h55l24 24q21 21 28.5 49.5t0 57t-28.5 49.5zM945 330l-1 241q0 22 -15 37t-36 15h-50h-1h-1l-299 -1v-292h403zM96 289v-328q0 -21 15 -36t36 -15h355v379h-406zM502 622h-271h-2l-1 1h-81
q-21 0 -36 -15t-15 -37v-241h406v292zM542 -90h351q5 0 10 1t9.5 3t9 4.5t8 6t6 8t4.5 9t3 9.5t1 10v328h-402v-379zM502 289v-379v379zM502 330v287q0 2 1 5h-1v-292zM940 292h-398v-3h402v4v-1h-4z" />
    <glyph glyph-name="uniE68A" unicode="&#xe68a;" 
d="M442 171q-4 -11 -48 -25.5t-96 -21.5q-161 -28 -195 -140q-4 -11 -5 -22v-52q-3 1 -8.5 3t-19 9t-24.5 15t-21 21t-13 28q-1 13 2 29.5t10.5 35.5t23 37.5t37 35.5t54.5 30.5t73 21.5q13 1 25 4l24 4l24 6q2 1 5 2h4q3 1 5.5 2t4.5 1.5t4 1.5l6 2q2 1 4 3l4 2l3.5 3.5
t2 3.5t1.5 3.5t1 3.5v4v4v4q0 2 -0.5 5t-0.5 4q-3 28 -14 53t-20.5 37.5t-28.5 33.5q-8 10 -14 17t-10 13q-14 19 -22 43t-9.5 35t-1.5 18q0 26 16 43q-12 68 -1 135q1 25 14 49.5t22 34t16 15.5q5 4 8 7q-2 6 -2.5 12t0.5 15q2 12 9.5 21t20.5 13.5t31 5.5q4 1 7 1h6h8
q3 0 6.5 0.5t7.5 0.5h6h4q3 0 5.5 -0.5t3.5 -0.5q-5 -6 -6 -13q-2 -2 -1 -9t1 -7.5t2 -7t2 -7.5q-5 -7 -17 -18q-6 -5 -14.5 -14t-22 -33.5t-14.5 -47.5q-12 -72 2 -148q1 -6 0 -7q-6 -6 -9 -9.5t-6 -11.5t-3 -18q0 -5 1.5 -15.5t9.5 -35t21 -43.5q5 -7 11 -14t15 -18
q9 -9 13.5 -14.5t13 -16.5t13.5 -19t11.5 -20t10.5 -23t7 -25.5t4.5 -29.5t1.5 -26v-12q0 -3 -1 -4zM683 -88h-23h-37h-498v24q1 0 -0.5 7t2.5 20t9 28t19 32t33 32.5t51 28.5t72 20q6 1 16.5 2.5t37 7t47 12t39 17.5t21.5 22q1 1 1.5 3.5t1.5 14.5t-1 35q-4 35 -17.5 67.5
t-27 50.5t-33 40t-25.5 31q-5 7 -8.5 13.5t-6.5 13t-5 13t-3.5 12t-2.5 10.5t-2 9t-1 7t-1 5v1q0 11 13 23q6 6 6.5 14t-1.5 15q-5 28 -5.5 68.5t4.5 69.5q1 20 11.5 40.5t21.5 31.5l10 10q15 13 22 23l2 4l2 4q1 6 -3 15t-3 15q2 9 30 11q45 2 71 0q36 -3 68.5 -8.5
t55.5 -12.5t42.5 -15t31.5 -15.5t20.5 -13.5t11.5 -10l4 -3q10 -12 17 -26.5t12 -31.5l3 -18q7 -40 4 -97q0 -11 -1.5 -22t-3.5 -23q-1 -6 0 -11.5t5 -10.5q11 -12 12 -15q0 -2 0.5 -4t0.5 -4v-3q-2 -45 -29 -84q-7 -9 -26 -31t-33 -40t-27.5 -50.5t-16.5 -67.5
q-2 -23 -1.5 -35t1.5 -15l1 -3q2 -8 12 -16t24.5 -14t31.5 -11t33 -9t29.5 -6.5t22.5 -3.5l8 -1q148 -28 180 -125q7 -19 7 -43v-24h-132h21h-18h-36h-174z" />
    <glyph glyph-name="uniE68C" unicode="&#xe68c;" 
d="M895 777h-217q-33 -1 -59 27q-9 10 -22.5 17t-33.5 8h-41h-7h-41q-13 -1 -24.5 -4.5t-18.5 -8.5t-13 -12q-7 -8 -16 -13.5t-16 -8t-13.5 -4t-9.5 -1.5h-4h-217q-4 0 -8 -1.5t-7 -3.5t-5.5 -5t-4 -7t-1.5 -8v-93q0 -12 6.5 -19t13.5 -7l6 -1h50v-650q1 0 0 -4t1.5 -11
t6 -13.5t12 -11.5t20.5 -6h270h33h31h39h175h24h1q40 2 40 46v650h50q3 0 7 0.5t11.5 7.5t7.5 19v93q0 5 -2 9.5t-5.5 8t-8 5.5t-10.5 2zM431 93q0 -9 -4.5 -16t-11.5 -11t-15 -4q-5 0 -9 1t-7 3t-6 5t-5 6.5t-3 7.5t-1 8v482q0 13 9 22t22 9q8 0 15 -4t11.5 -11t4.5 -16
v-482zM663 93q0 -13 -9 -22t-21.5 -9t-21.5 9t-9 22v482q0 13 9 22t22 9q5 0 9.5 -1.5t8.5 -4.5t6.5 -6.5t4 -8.5t1.5 -10v-482z" />
    <glyph glyph-name="uniE68D" unicode="&#xe68d;" 
d="M968 293q11 53 10.5 91.5t-6.5 59.5l-7 22l-100 5q-13 47 -38 88l68 77q-9 15 -19 28.5t-19.5 24t-19 20t-17.5 16t-16 12.5t-14 9.5t-10.5 6t-6.5 3.5l-3 1l-74 -68q-9 5 -17.5 9.5t-17 8.5t-18 7.5t-18.5 6.5t-19 6l-6 100q-22 6 -43 8.5t-37.5 2.5t-31.5 -1t-26 -3
t-19 -4t-12 -4l-4 -1l-5 -97q-16 -4 -31 -9t-29.5 -11.5t-28.5 -14.5l-70 64q-3 -1 -8 -3.5t-20 -12.5t-29 -22.5t-33 -34.5t-35 -48q5 -5 16 -15t18 -17.5t13.5 -18.5t7.5 -21q0 -4 -8.5 -27t-17 -45t-9.5 -22l-90 -4q-1 -3 -3 -8t-5.5 -22.5t-5 -36.5t1 -48t9.5 -58l90 -6
q6 -26 16 -51.5t24 -48.5l-59 -65l4 -7q2 -5 11.5 -20t22 -29.5t34.5 -33t48 -34.5l67 59q23 -14 48 -24t51 -17l5 -89q2 -1 7.5 -2.5t23 -5.5t36.5 -5t48 1t58 10l6 92q53 15 100 44l71 -63q41 25 71 56t40 50l9 18l-64 72q24 43 35 92zM516.5 161q-89.5 0 -152.5 63
t-63 152t63 152t153 63q29 0 57 -7.5t51.5 -21.5t43.5 -34t33.5 -43.5t21.5 -51.5t8 -57q0 -89 -63 -152t-152.5 -63z" />
    <glyph glyph-name="uniE692" unicode="&#xe692;" 
d="M799 -73h52q13 0 22 9t9 22v165v251q0 14 8.5 23t23.5 10q16 2 24.5 10.5t8.5 22.5v5q0 2 -1 4.5t-2 4.5l-2 4q-1 2 -3 4l-411 358q-12 10 -23 0l-411 -358q-2 -2 -3.5 -4.5t-2.5 -5.5t-1.5 -6t-0.5 -6q0 -14 9.5 -23.5t23.5 -9.5h3q2 0 8 -1.5t10 -4.5t7.5 -10t3.5 -17
v-251v-165q0 -8 4 -15t11 -11.5t16 -4.5h230q1 0 3 0.5t7.5 2.5t10 5.5t8 10.5t3.5 18v115q1 1 -0.5 6.5t2 15t9 18.5t20 16t34.5 8q1 -1 8.5 0t19.5 -2.5t23.5 -8.5t20 -19t8.5 -34v-115q0 -16 8 -25.5t16 -10.5l8 -1h64l93 1z" />
    <glyph glyph-name="uniE694" unicode="&#xe694;" 
d="M935 16l-225 225q76 96 76 218q0 41 -9.5 80.5t-26.5 74t-41 65t-54.5 54.5t-65 41t-74 26.5t-79.5 9.5q-96 0 -176.5 -47t-127.5 -127.5t-47 -176t47 -176t127.5 -127.5t176.5 -47q118 0 212 72l226 -226q6 -6 14 -9.5t16 -3.5q18 0 31 13t13 30.5t-13 30.5zM166 459.5
q0 111.5 79 190.5t190.5 79t190.5 -79t79 -191q0 -43 -13.5 -84.5t-38.5 -74.5t-58 -58t-74 -38.5t-85 -13.5q-112 0 -191 79t-79 190.5zM291 594q-5 2 -9.5 2t-9 -2.5t-6.5 -7.5q-30 -56 -37 -120q0 -8 4.5 -14t12.5 -7h2q7 0 12.5 5t5.5 12q6 57 33 107q1 3 1.5 7t-0.5 7
t-3.5 6t-5.5 5z" />
    <glyph glyph-name="uniE695" unicode="&#xe695;" 
d="M673 25h177q36 0 62 26t26 62q0 13 -4 25.5t-11 23.5l-20 35q-33 48 -57.5 114t-27.5 157q-4 96 -31 164.5t-70.5 104t-101.5 44.5l-1 2q0 19 -7.5 36.5t-20 30t-29.5 19.5t-36 7h-12q-26 0 -47.5 -12.5t-34 -33.5t-12.5 -47v-2q-25 -3 -47 -12t-42 -23t-36.5 -33
t-30.5 -44.5t-24 -55.5t-16 -66.5t-7 -78.5q-6 -155 -85 -271l-21 -35q-7 -11 -10.5 -23.5t-3.5 -25.5q0 -36 25.5 -62t62.5 -26h179q10 0 19.5 -2.5t16 -7t12 -9.5t9 -10t6 -9t3.5 -7l1 -3q13 -26 39 -42.5t57 -16.5q11 0 22.5 2.5t21 7t18.5 10.5q23 17 35 42q0 10 13 26
q17 18 41 19z" />
    <glyph glyph-name="uniE697" unicode="&#xe697;" 
d="M615 -86h-23h-37h-498v24q1 0 -0.5 7t2.5 20t9 28t19 32.5t33 32.5t51 28t72 20q3 0 8.5 1t21.5 4t30.5 6.5t32.5 8.5t31.5 11t24 14t12.5 17q1 0 1.5 2.5t1.5 14.5t-1 35q-2 19 -6.5 36t-10 31t-13 27.5t-15.5 24t-16.5 21t-15.5 18.5t-14.5 16.5t-11.5 14.5
q-8 11 -14 24t-8.5 23t-4.5 19t-2 14l-1 5q0 11 13 22q9 8 5 29q-5 29 -5.5 69t4.5 69q0 9 2.5 18.5t6.5 17.5t8.5 15.5t9 13t8.5 9.5l6 6l2 3q7 5 12.5 10.5t9.5 11.5l2 4l2 4q1 6 -3 15t-3 15q2 10 30 11q22 1 35.5 1.5t35.5 -1.5q49 -3 91.5 -12.5t67.5 -20.5t43 -21.5
t25 -16.5l7 -7q20 -23 29 -57l2 -10q1 -5 1 -9q7 -39 4 -97q-1 -20 -5 -45q-1 -5 0 -11t5 -10q11 -13 12 -16l1 -10q-2 -46 -29 -85q-7 -8 -26 -30.5t-33 -40.5t-27.5 -50t-16.5 -68q-2 -23 -1.5 -34.5t1.5 -14.5l1 -3q5 -19 45 -34.5t78 -21.5l38 -6q41 -8 73.5 -21
t51 -28.5t32.5 -32.5t18.5 -32t8.5 -27.5t2.5 -19.5t-0.5 -7v-24h-131h21h-18h-37h-173zM958 304h-113v113q0 2 -1 4v4q-1 2 -2 3l-4 4q-1 1 -3 2h-4q-2 1 -4 1q-8 0 -13.5 -5t-5.5 -13v-113h-112q-8 0 -13.5 -5.5t-5.5 -12.5q0 -5 2.5 -9.5t7 -7t9.5 -2.5h112v-112
q0 -5 2.5 -9.5t7 -7t9.5 -2.5q7 0 12.5 5.5t5.5 13.5v112h113q5 0 9 2.5t6.5 7t2.5 9.5q0 7 -5 12.5t-13 5.5z" />
    <glyph glyph-name="uniE69E" unicode="&#xe69e;" 
d="M875 649zM903 778h-777q-13 0 -25 -3t-22 -9.5t-18.5 -15t-14.5 -18.5t-9.5 -22t-3.5 -25v-575q0 -39 27 -66.5t66 -27.5h777q39 0 66.5 27.5t27.5 66.5v575q0 39 -27.5 66t-66.5 27zM905 671l-378 -385q-6 -6 -14 -6q-2 0 -4.5 1t-4.5 2t-4 3l-375 384q-6 6 -5.5 13.5
t6 13t13 5.5t13.5 -6l361 -370l365 371q3 4 8 5t10 0t8 -5q6 -5 6 -13t-5 -13z" />
    <glyph glyph-name="uniE69F" unicode="&#xe69f;" 
d="M935 98l-207 207l-1 1l-3 4q-3 2 -4.5 5t-3.5 7.5t-2 9t1 10t5 10.5q26 63 26 131q0 69 -26.5 131.5t-72 107.5t-108 71.5t-130.5 26.5q-47 0 -93 -13q-7 -2 -10 -6t-3 -7.5t1 -6.5l3 -5l2 -2l155 -155q38 -38 38 -91t-38 -90l-15 -15q-37 -38 -90 -38t-90 38l-158 158
q-16 13 -25 -7q-15 -48 -15 -97q0 -92 45.5 -169.5t123 -122.5t169.5 -45q74 0 141 31q6 2 11.5 2.5t9.5 -1t7 -3.5t5 -3l1 -2l212 -212q7 -7 16.5 -13t19.5 -9t20.5 -4t20.5 1q3 0 8 1t18 6.5t24 13.5t22 25t15 40q8 46 -25 79z" />
    <glyph glyph-name="uniE6A2" unicode="&#xe6a2;" 
d="M627 -86h-24h-37h-498v24q2 0 0 7t2.5 20t9 28t19 32.5t33 32.5t50.5 28t73 20q2 0 5 0.5t13.5 2.5t20.5 4t24 5t26 6.5t25 8.5t22 10t16 11.5t8 13.5q1 0 1.5 2.5t1.5 14.5t-1 35q-2 19 -6 36t-10 31t-13.5 27.5t-15 24t-16.5 21t-16 18.5t-14.5 16.5t-11.5 14.5
q-8 11 -13.5 24t-8.5 23t-4.5 19t-2.5 14v5q0 11 12 22q9 8 5 29q-5 29 -5.5 69t4.5 69q1 13 5.5 26t11 23t12.5 17.5t10 11.5l5 5q7 5 12 10.5t9 11.5l2 4l2 4q2 6 -2 15t-3 15q1 10 29 11q22 1 36 1.5t35 -1.5q79 -6 137.5 -25.5t77.5 -35.5l20 -17q10 -12 17 -26.5
t11 -30.5q3 -11 4 -19q7 -39 4 -97q-2 -20 -5 -45q-1 -5 0 -11t4 -10q1 -2 4.5 -5t5 -5.5t2.5 -5.5t1 -6v-4v-6q0 -3 -2 -13t-5 -19.5t-8.5 -22.5t-13.5 -24q-6 -8 -25.5 -30.5t-33.5 -40.5t-27.5 -50t-16.5 -68l2 -52q1 -7 7.5 -13.5t16.5 -11.5t22 -9.5t25 -8.5t26 -7
t24 -5t20 -4t14 -2l5 -1q41 -8 73.5 -21t51 -28.5t33 -32.5t19 -32t8.5 -27.5t2 -19.5t0 -7v-24h-132h21h-18h-36h-173z" />
    <glyph glyph-name="uniE6A4" unicode="&#xe6a4;" 
d="M814 494l-145 -1l60 91q17 32 20 63t-5 51.5t-18 36t-19 22.5l-9 8q-18 13 -34 14.5t-26.5 -5.5t-18 -16t-11.5 -17l-3 -7q-33 -70 -77.5 -120t-84 -72t-75 -32.5t-55.5 -12t-21 0.5h-55h-63q-2 0 -6 -0.5t-13.5 -4t-17 -9.5t-13.5 -19t-6 -30v-354q0 -10 2.5 -18.5
t5.5 -15t7 -11.5t8.5 -8t9.5 -5.5t8.5 -4t7 -2t5.5 -0.5l1 -1h42h167h373q13 0 24 2t19.5 7.5t16 13t13.5 18t11.5 24t10.5 30.5l59 235q6 36 -0.5 65.5t-21.5 47t-34 27t-39 9.5zM219 73q0 -4 -1.5 -7.5t-4 -6.5t-6.5 -4.5t-8 -1.5q-20 0 -20 20v361q0 3 1 6t3 5.5t4.5 4.5
t5.5 3t6 1t5 -0.5t4 -1.5l4 -2l2 -4q2 -1 3 -3t1.5 -4.5t0.5 -4.5v-361z" />
    <glyph glyph-name="uniE6B2" unicode="&#xe6b2;" 
d="M854 785h-690q-54 0 -92.5 -38.5t-38.5 -92.5v-507q0 -54 38.5 -92.5t92.5 -38.5h690q27 0 51.5 10.5t42 28t27.5 42t10 50.5v507q0 54 -38 92.5t-93 38.5zM302 617q27 0 46.5 -19.5t19.5 -47t-19.5 -47t-47 -19.5t-47 19.5t-19.5 46.5q0 18 9 33.5t24.5 24.5t33.5 9z
M919.5 258q-6.5 -5 -14.5 -4t-13 8l-147 194q-3 4 -13 14t-33.5 23t-45.5 11q-62 -7 -115 -125q-54 -120 -114 -135q-7 -2 -15 -2t-14.5 0.5t-14.5 3t-14 5t-14 7.5t-13.5 8.5t-14.5 10t-13.5 10t-14.5 11.5l-5 4q-37 29 -66.5 17.5t-101.5 -80.5q-5 -6 -13 -6q-9 1 -14 6
q-3 3 -4.5 6.5t-1.5 7.5t1.5 7.5t4.5 6.5q17 16 28 26.5t25 23t24.5 19.5t23 14t23 9.5t22.5 3t23.5 -3t24 -10t25.5 -16.5l6 -5q23 -18 35 -26.5t29 -15.5t30 -4q41 10 87 113q63 139 147 148q13 2 26 0t24 -6t21 -9.5t18.5 -12t15 -12.5t12 -11.5t7.5 -8t3 -3.5l147 -195
q5 -6 4 -14t-7.5 -13z" />
    <glyph glyph-name="uniE732" unicode="&#xe732;" 
d="M928 608h-76q8 6 14 13t12 15t10.5 16.5t7.5 17.5q14 47 -17 87q-2 3 -5 5q-20 17 -43.5 26t-45.5 10.5t-46 -3t-44 -12t-41 -18.5t-35 -20t-27 -19q-11 -8 -13.5 -20.5t5 -23.5t20.5 -13.5t24 4.5l2 2h1q17 13 36.5 24t49.5 23.5t60 12t53 -18.5q9 -13 4 -27
q-5 -17 -23 -32.5t-32 -20.5q-64 -24 -105 -27q-1 0 -4 -1h-2h-88q-3 5 -5 6q-24 23 -45 42t-47.5 43t-33.5 29q-89 60 -165.5 69t-127.5 -35q-2 -1 -3 -2t-2 -3q-15 -20 -19.5 -42t2.5 -45q6 -17 17.5 -33t26.5 -29h-82q-13 0 -22.5 -9.5t-9.5 -22.5v-160q0 -14 9.5 -23
t22.5 -9v-313q0 -42 27 -72t65 -30h645q39 0 67 30t28 72v313q13 0 22.5 9t9.5 23v160q0 13 -9.5 22.5t-22.5 9.5zM200 716q23 17 53.5 19t62 -10t54.5 -24.5t45 -27.5q9 -6 73 -65h-126h-2q-3 1 -4 1q-11 1 -19 2t-20.5 4t-28.5 8t-38 14q-13 4 -31 19.5t-23 32.5
q-5 14 4 27zM831 353h-640q-14 0 -23 9.5t-9 22.5t9 22.5t23 9.5h640q13 0 22.5 -9.5t9.5 -22.5q0 -7 -2.5 -13t-7 -10t-10.5 -6.5t-12 -2.5z" />
    <glyph glyph-name="uniE735" unicode="&#xe735;" 
d="M641 284v18q127 89 127 321q0 56 -17 101t-49.5 76t-79.5 47.5t-106 16.5h-8q-79 0 -135.5 -28.5t-86.5 -83t-30 -129.5q0 -231 128 -321v-18q-76 -10 -139 -31.5t-106 -56.5t-43 -76q0 -185 416 -185t416 185q0 41 -43 76t-106 56t-138 32z" />
    <glyph glyph-name="uniE73C" unicode="&#xe73c;" 
d="M992 384q0 9 -1 11q-1 6 -2 11q-1 1 -1 2l-2 4q-66 145 -197 234.5t-277 89.5q-96 0 -189 -40.5t-167 -113.5t-118 -169q-1 -1 -1.5 -2.5t-0.5 -2.5q0 -2 -1 -2q0 -2 -1 -8l-2 -11v-6l1 -8q0 -1 0.5 -3t0.5 -4l2 -6l2 -4q44 -96 118 -169.5t167 -114t189 -40.5
q146 0 277 89t196 233q1 1 2 3t1 4q0 1 1 1q0 2 0.5 4t1 3.5t-0.5 1.5q2 8 2 13zM512 224q-66 0 -113 47t-47 113t47 113t113 47t113 -47t47 -113t-47 -113t-113 -47z" />
    <glyph glyph-name="uniE779" unicode="&#xe779;" 
d="M512 829q-121 0 -224.5 -51.5t-163.5 -140t-60 -192.5q0 -88 45.5 -166.5t128.5 -135.5l84 -52q-2 -17 -12 -50t-21 -66q-7 -19 8 -34q9 -8 22 -8q3 0 6.5 0.5t6.5 2.5q144 64 188 125q119 2 220.5 53.5t160.5 139.5t59 191q0 104 -60 192.5t-163.5 140t-224.5 51.5z
M580 352h-195q-24 0 -31 23l-1 9q0 4 1 8.5t3 8t5 6.5t6.5 5t8 3t8.5 1h195q13 0 22.5 -9.5t9.5 -22.5t-9.5 -22.5t-22.5 -9.5zM641 480h-256q-13 0 -22.5 9.5t-9.5 22.5q0 4 1 8.5t3 8t5 6.5t6.5 5t8 3t8.5 1h256q13 0 22.5 -9.5t9.5 -22.5q0 -4 -1 -8.5t-3 -8t-5 -6.5
t-6.5 -5t-8 -3t-8.5 -1z" />
    <glyph glyph-name="uniE78D" unicode="&#xe78d;" 
d="M511 832q-91 0 -174 -35.5t-143 -95.5t-95.5 -143t-35.5 -174t35.5 -174t95.5 -143t143 -95.5t174 -35.5t174 35.5t143 95.5t95.5 143t35.5 174q0 73 -22.5 141.5t-64 123.5t-96.5 96.5t-123.5 64t-141.5 22.5zM608 493q0 13 6.5 24t17.5 17.5t24 6.5q20 0 34 -14t14 -34
v-64q0 -13 -6.5 -24t-17.5 -17.5t-24 -6.5q-20 0 -34 14t-14 34v64zM320 493q0 20 14 34t34 14t34 -14t14 -34v-64q0 -20 -14 -34t-34 -14q-13 0 -24 6.5t-17.5 17.5t-6.5 24v64zM740 235q-27 -35 -63 -60.5t-78 -38.5t-87 -13q-22 0 -44 3t-42.5 9.5t-40 16t-37 22
t-33.5 27.5t-30 32q-8 11 -6.5 24t12 21t23.5 6.5t22 -11.5q32 -41 78 -63.5t98 -22.5q53 0 99.5 22.5t78.5 64.5q8 11 21 12.5t23.5 -6.5t12.5 -21t-7 -24z" />
    <glyph glyph-name="uniE792" unicode="&#xe792;" 
d="M789 767h-554q-26 0 -48.5 -9t-45.5 -35t-39.5 -67t-27 -110.5t-10.5 -160.5q0 -92 10.5 -162t27 -111.5t39.5 -67.5t45.5 -35t48.5 -9h554q34 0 61 18.5t44.5 46t30.5 67t19.5 74.5t10 74.5t4.5 62t1 42.5q0 16 -1 35t-3 51.5t-7.5 63t-13 65.5t-21 63.5t-30 52.5
t-41 37.5t-54.5 13.5zM690 351l-257 -156q-4 -2 -8 -3.5t-8 -1.5q-9 1 -16 5q-8 4 -12 11.5t-4 15.5v322q0 19 16 28q8 4 17 4t16 -5l257 -166q15 -9 14 -27q0 -6 -1.5 -11t-5 -9t-8.5 -7z" />
    <glyph glyph-name="uF0007" unicode="&#xf0007;" 
d="M89 550h98v-221h-98v221zM244 580q5 0 12.5 0.5t32.5 3.5t50.5 7t62.5 13t72 20t76 28.5t77 38.5t72.5 50.5t64.5 63.5h22q68 -12 99 -124q25 -91 21 -240l-2 -70q-14 -187 -111 -235q-13 -7 -27 -10q-5 6 -15.5 16.5t-52.5 37.5t-95.5 49t-149 42t-209.5 25v284z
M308 229q0 -5 2 -14.5t10 -39.5t20 -60t35 -72t53 -80h26q15 0 44 8.5t35 25.5q1 1 1.5 3t0.5 8t-1.5 12t-6.5 15.5t-13 18.5q-2 3 -13.5 15t-24.5 27.5t-27.5 36t-25.5 46t-15 50.5h-100z" />
    <glyph glyph-name="uF0050" unicode="&#xf0050;" 
d="M902 503v-236h-273v-273h-236v273h-273v236h273v273h236v-273h273z" />
    <glyph glyph-name="uF005D" unicode="&#xf005d;" 
d="M876 -63h-730q-9 0 -15 6t-6 15v565h311v-228l152 -78v306h309v-565q0 -5 -2 -8.5t-4.5 -6.5t-6.5 -4.5t-8 -1.5zM563 608v225h182l141 -225h-323zM457 608h-323l141 225h182v-225z" />
    <glyph glyph-name="uF0068" unicode="&#xf0068;" 
d="M464 -33q-46 42 -96 86q-26 23 -50 43.5t-45 39.5q-11 8 -21 16.5t-20.5 17t-20.5 16.5l-20 18q-10 8 -21 17q-5 -1 -10 -1h-9q-8 -1 -17 -1h-16q-24 0 -39 14.5t-15 35.5v226h1l-1 1q0 25 15.5 41t38.5 16h52q82 70 149 125q14 13 28.5 24.5t28 23t26.5 22t24 19.5
q23 19 37 32q16 12 19 15q27 19 43.5 17.5t26 -16t13 -35t3.5 -37.5v-726q0 -17 -6 -36t-19 -30.5t-33 -9.5q-10 1 -21.5 7.5t-24.5 18.5zM754 499q18 -26 29.5 -52.5t11.5 -63.5q0 -36 -11.5 -64.5t-29.5 -52.5q-8 -9 -16 -17q-2 -2 -4 -3.5t-4.5 -2.5t-5.5 -1.5t-6 -0.5
q-16 0 -28 12q-3 4 -5.5 8.5t-4 9t-1.5 10.5q0 7 3 14h-1q5 10 11 19t12 18.5t10 21.5q2 6 3 13t1 16q0 16 -4 28q-1 2 -2 5l-2 4q-1 3 -2 5l-2 4l-2 4q-2 3 -4 6.5t-4 6.5l-4 6l-4 6q-2 3 -3.5 6t-2.5 7q-3 6 -3 14q0 16 11.5 27.5t27.5 11.5q6 0 11 -1.5t9 -5.5
q8 -8 16 -18zM804 97q-6 -4 -12 -6t-13 -2q-18 0 -31 13t-13 31q0 10 3.5 18t11.5 15q1 1 2 1l2 2l1 1q25 17 46.5 40t37.5 50.5t25 58.5t9 64q0 67 -34 122.5t-85 91.5q-19 13 -19 36q0 9 3 16.5t10 14.5q13 13 31 13q15 0 27 -10q33 -23 61.5 -54t49 -67.5t32.5 -77.5
t12 -85q0 -11 -1 -22t-2.5 -22t-3.5 -21.5t-5 -20.5q-12 -41 -33 -78t-49.5 -68t-62.5 -54z" />
    <glyph glyph-name="uF0069" unicode="&#xf0069;" 
d="M817 630q23 -54 26.5 -102t-5.5 -88q-4 -20 -10.5 -38t-15 -34t-17.5 -30t-18 -26q-18 -24 -34 -39.5t-22 -21.5q-2 -2 -4.5 -3.5t-4.5 -3.5l-4 -2l-3 -3q-8 -4 -14 -6q-3 -2 -5.5 -3.5t-5.5 -2.5l-2 -3q-2 -1 -3 -2.5t-2.5 -3t-2.5 -3.5q-6 -8 -10.5 -16.5t-7.5 -16.5
q-6 -16 -11 -31q-4 -12 -10 -20q-2 -4 -5 -7.5t-6 -6.5q-4 -4 -7.5 -7t-6.5 -5h-195q-3 2 -5 3.5t-4.5 3.5t-4.5 5q-6 6 -12 15.5t-11 24.5q-9 26 -22 42q-2 2 -4 4.5t-5 5t-5.5 5.5t-5.5 6l-6 4q-3 3 -7 5q-14 11 -32 29q-4 3 -7 7l-8 8l-6 8q-4 4 -8 9t-7 9q-6 8 -12 17
t-11.5 18t-10.5 19q-16 30 -26 65q-4 18 -7 37t-4 39q-2 40 8 85q15 71 52 119t83.5 77.5t95.5 42.5t89 13q42 0 87 -11.5t87.5 -36t77.5 -62.5t57 -91zM624 50v-10q0 -4 1 -9v-11q-1 -17 -9.5 -37t-32.5 -29q-9 -3 -24.5 -10t-46.5 -7q-27 0 -44.5 6.5t-26.5 8.5
q-13 2 -20.5 10.5t-11.5 19.5q-2 5 -3 10.5t-2 10.5q-1 12 -1 20v28z" />
    <glyph glyph-name="uF006A" unicode="&#xf006a;" 
d="M958 287q6 -31 -5.5 -62.5t-45 -62.5t-84.5 -55t-131.5 -38.5t-179.5 -14.5q-91 0 -169 14t-131.5 37.5t-89.5 53.5t-49.5 62.5t-6.5 63.5q7 26 27.5 41.5t42 26t28.5 22.5q5 11 14 25.5t15.5 27.5t11.5 28q6 17 17 73t17 71q16 45 42 78q14 17 29 31t32 26
q17 11 34.5 19.5t37.5 15.5q-6 -2 -6 4q2 12 19 30q33 31 81 31t80 -31q10 -9 13.5 -17t2.5 -11l-1 -4q40 -12 75.5 -35.5t61.5 -57.5t42 -79q3 -8 6.5 -22t6.5 -30t6.5 -32.5t7 -32t6.5 -25.5q6 -16 12 -28.5t15 -28t15 -26.5q4 -9 15.5 -16.5t24.5 -13.5t26 -13.5
t22.5 -19t12.5 -25.5zM667 -5q2 0 0 -6.5t-11 -15.5t-24.5 -18t-47 -15.5t-71.5 -6.5q-39 0 -69 6.5t-46 15.5t-26 18t-13 15.5t-2 6.5q78 -15 151 -15q35 0 74.5 4t61.5 8z" />
    <glyph glyph-name="uF006D" unicode="&#xf006d;" 
d="M563 324q-1 16 20 34t47 39.5t48 49t24 63.5q2 39 -8 73t-33 58.5t-59.5 39t-85.5 14.5q-60 0 -100.5 -21.5t-65.5 -52.5q-13 -15 -21.5 -30.5t-13.5 -31.5q-10 -33 -9 -55q0 -8 2 -15.5t5.5 -13t8.5 -9.5q16 -12 34 -12q6 0 11.5 1t11 3t10.5 6q15 10 15 30
q0 12 7.5 29.5t20.5 33.5q6 8 14 14.5t17 12.5q19 11 42 11q44 0 71 -22.5t25 -56.5q0 -8 -2.5 -16t-7.5 -15q-10 -15 -25.5 -28.5t-32.5 -26.5q-6 -5 -11 -10l-12 -8l-10 -10l-6 -6l-6 -6l-4 -6q-3 -3 -5.5 -6.5t-4.5 -6.5q-5 -9 -8 -18t-3 -19l1 -38q0 -15 14 -28.5
t36 -14.5q23 1 36.5 15t12.5 32v24zM512.5 78q25.5 0 43 17.5t17.5 42.5q0 26 -17.5 43.5t-43 17.5t-43 -17.5t-17.5 -43.5q0 -25 17.5 -42.5t43 -17.5zM511.5 830q92.5 0 174 -35t142.5 -95.5t95.5 -142t34.5 -173.5q0 -47 -8.5 -90.5t-26.5 -83.5q-34 -81 -95 -142
t-142.5 -95.5t-174 -34.5t-173.5 35t-142 95.5t-95.5 141.5t-34.5 173.5t34.5 174t95.5 141.5t142 95.5t173.5 35.5z" />
    <glyph glyph-name="uF006F" unicode="&#xf006f;" 
d="M527.5 852q-91.5 0 -175 -35.5t-143.5 -95.5t-95.5 -143.5t-35.5 -175t35.5 -174.5t95.5 -143.5t143.5 -96t175 -35.5t175 35.5t143.5 96t95.5 143.5t35.5 174.5t-35.5 175t-95.5 143.5t-143.5 95.5t-175 35.5zM703 291q17 -17 17 -41t-17 -40.5t-40.5 -16.5t-40.5 16
l-94 95l-94 -95q-17 -16 -41 -16t-40.5 16.5t-16.5 40.5t17 41l94 94l-94 94q-17 17 -17 40.5t17 40.5q11 11 25.5 15t29.5 0t26 -15l94 -94l94 94q17 17 40.5 17t40.5 -17q11 -11 15 -26t0 -29.5t-15 -25.5l-94 -94z" />
    <glyph glyph-name="uF0070" unicode="&#xf0070;" 
d="M527.5 847q-90.5 0 -173.5 -35t-142.5 -95t-95 -142.5t-35.5 -173.5t35.5 -174t95 -142.5t142.5 -95t173.5 -35.5t173.5 35.5t143 95t95 142.5t35 174t-35 173.5t-95 142.5t-143 95t-173.5 35zM528 105q-12 0 -22.5 4.5t-18 12t-12 18.5t-4.5 22q0 24 16.5 40.5t40 16.5
t40 -16.5t16.5 -40t-16.5 -40.5t-39.5 -17zM584 347q0 -16 -7.5 -29t-20.5 -20.5t-28 -7.5q-24 0 -40.5 16.5t-16.5 40.5v243q0 23 16.5 40t40 17t40 -17t16.5 -40v-243z" />
    <glyph glyph-name="uF0071" unicode="&#xf0071;" 
d="M529.5 848q-91.5 0 -175 -36t-143.5 -96t-95.5 -143.5t-35.5 -174.5q0 -73 22.5 -142t64 -124t97 -96.5t124 -64.5t142.5 -23q91 0 174.5 36t143.5 96t95.5 143t35.5 174.5t-35.5 175t-95.5 143.5t-143.5 96t-175 36zM747 419l-221 -222q-17 -17 -41 -16q-6 -1 -11.5 0.5
t-10.5 3.5t-10 5t-9 7l-117 117q-17 17 -17 40.5t17 40.5t41 17t40 -17l77 -76l181 181q7 6 15 10.5t17 5.5t17.5 0t17 -5.5t14.5 -10.5q17 -17 17 -41t-17 -40z" />
    <glyph glyph-name="uF0072" unicode="&#xf0072;" 
d="M752 53h-510q-25 0 -42 -19t-17 -47t17 -47.5t42 -19.5h510q25 0 42 19.5t17 47.5t-17 47t-42 19zM987 650q-6 6 -13 11q-28 19 -61 19q-44 0 -75.5 -31t-31.5 -76q0 -54 44 -86q-15 -18 -32.5 -36t-45 -37.5t-42.5 -15.5q-18 5 -31 39.5t-19.5 82.5t-9 74t-3.5 45
q39 6 64.5 36t25.5 69q0 45 -31 76t-75.5 31t-75.5 -31t-31 -76q0 -15 4 -29t11.5 -26t18 -22t22.5 -17q-5 -13 -11 -26.5t-17 -36t-21 -39t-22 -29t-21 -12.5q-12 0 -26.5 18t-28.5 46t-22 46t-14 35q24 14 38.5 38.5t14.5 53.5q0 45 -31 76t-75.5 31t-75.5 -31t-31 -76
q0 -23 9 -43.5t25.5 -35.5t37.5 -22q10 -4 20 -5q0 -2 -0.5 -7t-2.5 -20l-4 -30q-2 -15 -5.5 -35t-7.5 -38t-9.5 -36t-11 -31.5t-13 -22.5t-15.5 -11q-18 -5 -43.5 12t-40.5 33.5t-27 33.5q45 32 45 87q0 29 -14.5 54t-39 39t-53.5 14q-6 0 -12.5 -1t-13.5 -2
q-11 -1 -21.5 -4.5t-24.5 -16.5t-22 -32q-6 -12 -9.5 -24.5t-3.5 -26.5q0 -36 22 -64q12 -18 31 -28q25 -14 54 -14q7 0 16 1q4 -28 10.5 -65t20.5 -103t34 -109.5t42 -44.5q24 -1 548 -1q20 0 39.5 32.5t34 78.5t26 92t17.5 78l6 32l1 9h6h5q7 0 14 0.5t13.5 2.5t13 4.5
t12.5 6.5q5 2 10.5 4.5t10.5 6.5t9 9t7.5 11.5t5.5 14.5q3 7 5.5 14.5t4 15.5t1.5 16q0 46 -33 77z" />
    <glyph glyph-name="uF0074" unicode="&#xf0074;" 
d="M65 40q0 -42 23.5 -71.5t57.5 -29.5h734q33 0 56.5 29.5t23.5 71.5v461h-895v-461zM880 832h-735q-33 0 -56.5 -30t-23.5 -71v-113h895v113q0 27 -10.5 50.5t-29 37t-40.5 13.5zM385 210q0 -13 -10 -13h-110q-10 0 -10 13v5q0 13 10 13h110q10 0 10 -13v-5zM578 210
q0 -13 -10 -13h-110q-3 0 -5.5 2t-3.5 4.5t-1 6.5v5q0 13 10 13h110q4 0 7 -3.5t3 -9.5v-5zM770 210q0 -13 -10 -13h-110q-10 0 -10 13v5q0 13 10 13h110q10 0 10 -13v-5z" />
    <glyph glyph-name="uF0076" unicode="&#xf0076;" 
d="M683 375q0 42 -20.5 78t-55.5 57l-36 -61q19 -11 30.5 -31t11.5 -43q0 -20 -8 -37.5t-22.5 -29.5t-32.5 -17l40 -60q41 18 67 57t26 87zM751 747l-36 -60q79 -49 125.5 -132t46.5 -180q0 -101 -49 -185.5t-132 -132.5l40 -59q96 58 153 158t57 219q0 116 -55.5 215
t-149.5 157zM69 149h134v451h-134v-451zM821 375q0 79 -38.5 147t-102.5 108l-37 -62q49 -30 78 -81.5t29 -111.5q0 -65 -33 -119.5t-88 -82.5l40 -60q69 39 110.5 108.5t41.5 153.5zM239 149l272 -177v806l-272 -177v-452z" />
    <glyph glyph-name="uF00F6" unicode="&#xf00f6;" 
d="M510 557q-72 0 -123 -51t-51 -123t51 -123t123 -51q40 0 76 18q11 5 11 17q0 8 -6 13.5t-14 5.5q-3 0 -7 -1l-14 -6q-7 -3 -14.5 -4.5t-15.5 -2.5t-16 -1q-56 0 -95.5 39.5t-39.5 95.5t39.5 95.5t95.5 39.5q27 0 52.5 -10.5t43.5 -28.5t28.5 -43t10.5 -53q0 -6 -0.5 -13
t-2 -13t-2.5 -12l-1 -5q0 -8 6 -13.5t14 -5.5q5 0 9.5 2.5t7.5 7.5l1 3v1q7 24 7 48q0 72 -51 123t-123 51zM922 479h-67q-5 19 -12 38l-4 10q-3 6 -6 11.5t-5.5 11.5t-6.5 11l47 47q4 4 6 8.5t2 9.5t-2 10t-6 8l-97 97q-5 5 -11.5 6.5t-13 0t-11.5 -6.5l-47 -47
q-8 5 -17 10l-19 9l-9 3q-18 7 -37 12v67q0 10 -7.5 17.5t-17.5 7.5h-138q-7 0 -12.5 -3.5t-9 -9t-3.5 -12.5v-67q-19 -5 -37 -12l-11 -4q-17 -8 -34 -18l-47 47q-4 4 -8.5 5.5t-9.5 1.5t-10 -1.5t-8 -5.5l-97 -97q-4 -3 -6 -8t-2 -10q0 -10 8 -18l47 -47q-5 -8 -9.5 -17.5
t-9.5 -19.5l-3 -8q-2 -5 -3 -10l-4 -8l-2 -10q-2 -4 -3 -9h-67q-10 0 -17.5 -7.5t-7.5 -17.5v-137q0 -11 7.5 -18.5t17.5 -7.5h67q5 -19 13 -38l3 -10q8 -17 18 -34l-47 -47q-5 -5 -7 -11.5t0 -13t7 -11.5l97 -97q7 -7 18 -7t18 7l47 47q17 -10 34 -17l8 -4l3 -1
q18 -7 37 -12v-66q0 -6 2 -10.5t5.5 -8t8 -5.5t9.5 -2h138q10 0 17.5 7.5t7.5 18.5v66q19 5 38 13l10 3q2 2 4 3l6 2q2 1 4.5 2.5t5 2.5t5 2.5t5 2.5t4.5 3l47 -47q7 -7 18 -7t18 7l97 97q2 2 3.5 4.5t2.5 5t1.5 5.5t0 6t-1.5 5.5t-2.5 5t-3.5 4.5l-47 47q10 17 18 36l2 4
l2 5l12 37h67q5 0 9.5 2t8 5.5t5.5 8t2 10.5v137q0 10 -7.5 17.5t-17.5 7.5zM907 332h-83l-5 -20q-3 -11 -6.5 -22t-7.5 -22l-1 -4l-3 -4q-9 -21 -20 -40l-11 -17l59 -59l-76 -76l-59 59l-17 -11q-19 -11 -41 -21l-8 -3q-21 -9 -43 -14l-20 -4v-83h-107v83l-19 4
q-22 6 -46 15l-7 3q-20 8 -39 20l-18 11l-58 -59l-76 76l59 59l-11 17q-12 19 -21 41l-4 8q-8 21 -13 43l-5 20h-83v107h83l5 19q3 11 6.5 22t7.5 23l3 8l6 13q4 7 7.5 13.5t7.5 12.5l11 18l-59 58l76 76l58 -59l18 11q9 6 19.5 11t21.5 10l8 3q10 5 21 8l22 6l19 5v83h108
v-83l19 -5q22 -5 45 -14l8 -3q20 -9 39 -21l18 -11l58 59l76 -76l-59 -58l11 -18q3 -4 5.5 -9t5.5 -10.5t5.5 -10.5t4.5 -11l4 -8q8 -21 13 -43l5 -19h83v-107z" />
    <glyph glyph-name="uF0101" unicode="&#xf0101;" 
d="M832 772l-7 11h-610l-7 -9q-55 -70 -86 -133t-36.5 -109.5t-1 -76.5t16.5 -55q20 -41 57.5 -65.5t79.5 -24.5h6q33 2 63.5 13t48.5 24t33 28q53 -61 132 -61q47 0 80.5 19t55.5 45q80 -65 152 -65q62 0 105 49q25 30 31.5 72t-4.5 88t-25 86.5t-36 80.5t-31.5 56.5
t-16.5 26.5zM834 283q-10 0 -17 -7t-7 -17v0v-173q0 -20 -14 -34.5t-34 -14.5h-207h-288q-20 0 -34 14.5t-14 34.5v173q0 10 -7 17t-17 7q-7 0 -12.5 -3t-8.5 -8.5t-3 -12.5v-178q0 -38 27 -65t64 -27h505q24 0 45.5 12.5t33.5 33.5t12 46v178q0 10 -7 17t-17 7z" />
    <glyph glyph-name="uF0106" unicode="&#xf0106;" 
d="M664 527h10q5 0 10 -0.5t10 -0.5q-20 92 -108.5 153t-202.5 61q-127 0 -217.5 -75.5t-90.5 -184.5q0 -120 123 -205l-31 -92l108 53q5 -1 21.5 -4t23 -4.5t19 -3t23 -2.5t21.5 -1q7 0 14 0.5t15 0.5q-5 16 -7.5 32t-2.5 32q0 100 76.5 170.5t185.5 70.5zM499 610
q17 0 27.5 -10.5t10.5 -27.5t-10.5 -27.5t-27.5 -10.5q-19 0 -33 11t-14 27q0 8 4 15.5t10.5 12.5t15 7.5t17.5 2.5zM283 534q-18 0 -32 11t-14 27q0 8 4 15.5t10.5 12.5t14.5 7.5t17 2.5t16 -2.5t12 -7.5t7.5 -12t2.5 -16q0 -17 -10.5 -27.5t-27.5 -10.5zM945 290
q0 45 -21.5 86t-57 70.5t-83.5 47t-99 17.5q-110 0 -186 -64.5t-76 -156.5t76 -156.5t186 -64.5q31 0 92 15l85 -46l-23 76q107 80 107 176zM599 328q-8 0 -15 4.5t-11.5 11.5t-4.5 14.5t4.5 14.5t11.5 11.5t15 4.5q17 0 27.5 -9.5t10.5 -20.5q0 -8 -4.5 -15t-13.5 -11.5
t-20 -4.5zM768 328q-11 0 -20.5 9.5t-9.5 21t9.5 21t20.5 9.5q17 0 28 -9.5t11 -21.5t-11 -21t-28 -9z" />
    <glyph glyph-name="uF010B" unicode="&#xf010b;" 
d="M608 478q-5 5 -9.5 9t-10.5 8q-11 11 -27 11t-27 -11.5t-11 -27.5q0 -14 9 -25v0q4 -5 9 -8q7 -6 11 -10l3 -3q15 -14 21 -34t3.5 -40.5t-12 -40.5t-24.5 -35l-172 -171q-20 -20 -46.5 -27t-53 0t-46.5 27l-3 3q-15 15 -22.5 34t-7.5 38.5t7.5 39t22.5 34.5l76 76
q16 12 16 33q0 8 -3.5 16t-9 13.5t-13.5 9t-16 3.5h-6l-4 -2q-3 0 -5.5 -1t-4.5 -2l-4 -2l-1 -1l-8 -7l-79 -74q-56 -56 -56 -135t56 -135l3 -3q56 -56 135 -56t135 56l172 172q22 22 36 48.5t19 55t2 57t-16 55.5t-35 49zM856 730l-4 3q-55 56 -134.5 56t-134.5 -56
l-172 -171q-28 -28 -42.5 -61.5t-15.5 -67t12.5 -67t41.5 -60.5l3 -3l4 -3q1 -2 3 -3.5t3 -3.5q4 -4 9 -7v0q9 -5 19 -5t18.5 5t13 13.5t4.5 18.5q0 4 -0.5 8t-2.5 8q-3 6 -20 24l-4 3q-28 32 -22 69.5t38 69.5l172 172q30 30 72.5 30t73.5 -30l3 -4q30 -30 30 -73t-30 -73
l-76 -75q-8 -6 -12.5 -15t-4.5 -19q0 -17 12.5 -29.5t29.5 -12.5q6 0 11.5 1.5t10.5 4.5l1 1q6 4 10 9l80 73q55 56 55 135.5t-55 134.5z" />
    <glyph glyph-name="uF010D" unicode="&#xf010d;" 
d="M190 425q11 0 18.5 7.5t7.5 18.5q0 7 -3.5 13t-9.5 9.5t-13 3.5h-1h-62h-4q-4 0 -7.5 -1t-6.5 -2t-6 -3t-5.5 -4.5t-4.5 -5.5t-3.5 -6t-2 -7t-0.5 -7v-434q0 -7 2.5 -13.5t7.5 -11.5t11.5 -7.5t13.5 -2.5h6h61v0h1q5 0 9.5 2t8 5.5t5 8t1.5 9.5q0 10 -7 17.5t-17 7.5h-51
l2 403h49zM927 462q-27 43 -82 46h-5l-206 1q7 20 12 41t8 44t3 44q0 41 -9 83v-1q-8 36 -36.5 59t-64.5 23q-42 0 -69 -31t-27 -75v-10q-2 -80 -59 -139t-137 -68v-55l-1 -222v-230h11h500h9q13 0 23 3.5t24 12.5q25 16 38 42q3 5 5 11l77 345q2 5 1 12q1 16 -2.5 32.5
t-12.5 31.5zM894 409l-83 -368q-4 -9 -13 -15q-2 -1 -3.5 -2t-3 -1.5t-3.5 -1t-4 -0.5h-4l-477 1v407q77 35 121 72t67 102q6 17 9 33q3 13 4 27.5t1 22.5v8q-1 13 2.5 24t11 17t15.5 9t16 3q18 -1 34 -19t16 -33q6 -28 6 -58q0 -7 -0.5 -14.5t-1 -13t-1 -10.5t-1 -8
t-0.5 -5.5t-1 -3.5v-2q-9 -46 -31 -87l-2 -8q-1 -4 -1 -8q0 -13 10 -17.5t28 -4.5h239h15q20 1 31 -17q8 -13 4 -29zM265 -28v0v0z" />
    <glyph glyph-name="uF0113" unicode="&#xf0113;" 
d="M510 791q-12 0 -23 -4t-19.5 -12t-14.5 -18l-97 -197l-223 -33q-18 -2 -31 -13t-19 -27q-12 -34 14 -60l164 -160l-38 -222q-3 -16 4 -32t22 -26q16 -10 36 -10q15 0 30 7l195 103l195 -103q14 -7 30 -7q19 0 35 10q32 22 26 58l-38 222l164 160q26 26 14 60
q-5 16 -18.5 27t-30.5 13l-224 33l-97 197q-8 16 -23 25t-33 9z" />
    <glyph glyph-name="uF0114" unicode="&#xf0114;" 
d="M510 753q3 0 6 -1t6 -2.5t5 -4t4 -4.5l97 -198q2 -4 5 -7.5t7 -6.5t8.5 -4.5t8.5 -2.5l224 -33q4 0 8 -2t6.5 -5t3.5 -7q2 -5 0.5 -10.5t-5.5 -9.5l-164 -161q-14 -14 -11 -33l38 -222q1 -4 0 -7.5t-3 -7t-6 -5.5q-3 -2 -6.5 -3t-6.5 -1q-6 0 -12 3l-195 102q-3 2 -6 3
t-6 1.5t-6 0.5q-10 0 -19 -5l-195 -102q-5 -3 -11 -3q-8 0 -14 4q-11 7 -9 20l38 222q1 9 -1.5 18t-9.5 15l-164 161q-9 8 -5 20q2 6 7 9.5t11 4.5l224 33q20 3 29 21l98 198q2 5 8 8.5t13 3.5zM510 791q-12 0 -23 -4t-19.5 -12t-14.5 -18l-97 -197l-223 -33q-18 -2 -31 -13
t-19 -27q-12 -34 14 -60l164 -160l-38 -222q-3 -16 4 -32t22 -26q16 -10 36 -10q15 0 30 7l195 103l195 -103q14 -7 30 -7q19 0 35 10q32 22 26 58l-38 222l164 160q26 26 14 60q-5 16 -18.5 27t-30.5 13l-224 33l-97 197q-8 16 -23 25t-33 9z" />
    <glyph glyph-name="uF0115" unicode="&#xf0115;" 
d="M730 -8l-394 392l394 392q5 5 7 11.5t1 12.5t-6 10q-6 7 -16.5 6.5t-18.5 -8.5l-406 -404q-1 -1 -2.5 -3t-2.5 -4t-1.5 -4.5t-1 -4.5t-0.5 -4q0 -5 2 -10.5t7 -9.5l405 -404q5 -5 11.5 -7t13 -1t10.5 6q7 6 6.5 16.5t-8.5 17.5z" />
    <glyph glyph-name="uF0116" unicode="&#xf0116;" 
d="M289 -42q7 -7 17 -6.5t18 8.5l406 404q9 8 8 20q1 12 -8 20l-406 404q-8 8 -18 8.5t-16.5 -6t-6 -17t8.5 -17.5l394 -392l-394 -392q-5 -5 -7.5 -11.5t-1 -12.5t5.5 -10z" />
    <glyph glyph-name="uF011C" unicode="&#xf011c;" 
d="M886 570q-45 26 -124 -30q-43 -29 -83 -50t-66 -29t-49 -13t-30.5 -3.5t-11.5 0.5q-10 -2 -34 -0.5t-90.5 25t-134.5 70.5q-80 56 -125 29q-55 -32 -39 -181l1 -10q17 -165 123 -253.5t289 -88.5h1q101 0 178 27t119 64.5t69 89t35 89.5t11 76q0 2 1 13q2 27 2.5 44.5
t-1.5 47.5t-12.5 51t-28.5 32zM880 399q-1 -11 -2 -14q-12 -216 -211 -280q-71 -22 -154 -23h-1v-23v23q-336 0 -365 300l-2 11q-13 119 16 136q19 12 75 -27q47 -32 93.5 -54t79.5 -30.5t58.5 -12t40.5 -3.5h14h14q12 0 35 4t53.5 13t74 30.5t90.5 52.5q55 38 74 28
q13 -8 17.5 -41t-0.5 -90zM811 440q-9 0 -16 -6.5t-7 -16.5v-1l1 -1h-1q1 -6 -4.5 -33.5t-26 -72t-52.5 -73.5q-8 -7 -8 -17q0 -9 7 -16t17 -7q2 0 5 0.5t5.5 2t4.5 3.5q37 33 61.5 83t31.5 83.5t5 47.5l1 1q0 6 -3.5 11.5t-8.5 8.5t-12 3zM326 543q6 0 11.5 3.5t8.5 8.5
q49 127 162 127q58 0 107 -32t74 -85q0 -1 1 -3v0q7 -12 20 -12q9 0 16 7t7 16q0 8 -5 14q-10 21 -23.5 40t-30 34.5t-36 28t-40.5 21t-44 13t-46 4.5q-49 0 -89.5 -20t-69 -54t-46.5 -82v-1v-5q0 -9 6.5 -16t16.5 -7z" />
    <glyph glyph-name="uF0126" unicode="&#xf0126;" 
d="M881 614l-141 141q-23 22 -52.5 24t-49.5 -18l-471 -471l248 -249l471 471q13 13 17 31.5t-2 37t-20 33.5zM412 104l-182 182l357 357l181 -182zM853 546l-50 -50l-181 182l49 49q8 8 19 7.5t20 -9.5l141 -141q5 -5 7.5 -12.5t1 -14.5t-6.5 -11zM167 41l34 213l-34 35
l-46 -267q-3 -12 5.5 -20.5t20.5 -5.5l267 46l-34 34z" />
    <glyph glyph-name="uF012B" unicode="&#xf012b;" 
d="M165 232q-29 -33 -29.5 -74.5t27.5 -66.5l111 -100l6 -4q11 -8 27 -10q41 -6 105 25q31 15 64.5 37.5t68.5 52t71.5 65.5t71.5 76q69 80 118 160.5t70 147.5q31 97 -3 135l-4 5l-112 99q-18 16 -42 19q-25 4 -51 -6.5t-45 -32.5l-70 -82q-29 -34 -29.5 -75.5t27.5 -66.5
l106 -95q-18 -26 -38.5 -52.5t-42.5 -52.5q-45 -52 -92 -96l-107 95q-18 15 -42 19q-25 3 -51 -7.5t-45 -32.5zM708 750q10 -2 16 -8l12 -10l-146 -167l-11 9q-11 10 -10 28q0 23 17 43l70 81q24 28 52 24zM236 95l146 167l78 -71l21 -19l32 31q49 46 96 100
q23 27 44.5 54.5t40.5 54.5l26 37l-34 30l-64 57l148 169l65 -61l2 -2q2 -3 3 -8.5t1 -15.5t-3 -26.5t-9 -35.5q-20 -60 -65 -135q-23 -39 -52 -78t-62 -77q-66 -77 -136 -135q-66 -56 -123 -83q-51 -25 -77 -21q-4 0 -6 1l-2 2zM185 157q0 5 1 10.5t3 11t5.5 10.5t7.5 10
l70 82q24 27 52 23q5 -1 9 -2.5t7 -4.5l9 -8l-145 -167l-9 6q-11 10 -10 29z" />
    <glyph glyph-name="uF0131" unicode="&#xf0131;" 
d="M926 613l1 4q0 1 -1 2v2v1q-1 4 -3 7l-1 1q-2 3 -5 6l-2 1l-6 2q0 1 -1 1h-2h-2l-1 1h-543h-100l-29 89q-4 17 -22 18l-1 1l-83 15q-7 1 -12.5 -1.5t-9.5 -7t-5 -11.5q-2 -10 4 -17.5t15 -9.5l72 -13l123 -380l-57 -141v-1l-1 -1l-2 -4l-1 -5v-1v-2v-1q0 -3 1 -5
q1 -3 1 -4q1 -1 3 -4q1 -1 1.5 -2t1.5 -1l1 -1v-1l2 -1h1l4 -2q2 -1 6 -1h1v0h594q9 0 16 7t7 16.5t-7 16.5t-16 7h-551l36 104l3 -7h92h341h1h1h1q6 -1 12 1t10.5 6.5t5.5 10.5l104 299l1 2l1 3v0v1zM404 89q-7 0 -14 -2t-12 -6t-9 -9t-6 -11.5t-2 -13.5q0 -18 12.5 -30.5
t30 -12.5t30 12.5t12.5 30t-12.5 30t-29.5 12.5zM731 89q-9 0 -17 -3t-13.5 -9t-9 -14t-3.5 -16q0 -18 12.5 -30.5t30.5 -12.5t30.5 12.5t12.5 30t-12.5 30t-30.5 12.5z" />
    <glyph glyph-name="uF0183" unicode="&#xf0183;" 
d="M910 -13q-6 84 -45.5 158.5t-105.5 126.5l-6 4q-8 5 -16 5q-11 0 -18 -3.5t-11 -9t-4 -13.5q0 -5 1.5 -9.5t4 -8.5t6.5 -7l5 -4q112 -80 124 -239v-2v-2q0 -14 9.5 -23.5t22.5 -9.5t22.5 9t10.5 22v6zM806 530q0 121 -87 207t-209 86q-40 0 -78.5 -10.5t-71 -29.5
t-60 -46t-46.5 -59t-29.5 -70t-10.5 -78q0 -65 27.5 -123t78.5 -100q-91 -49 -147.5 -135.5t-62.5 -188.5l-1 -5v-1v0v-1q0 -5 2.5 -10.5t6 -9t8.5 -5.5t11 -2q3 0 7 1t7 2.5t5.5 4t4 5.5t2.5 6.5t1 7.5v1h1v6q8 96 64.5 174.5t144.5 113.5q71 -33 136 -33q67 0 128 29
l30 18l24 16q54 42 84 102t30 127z" />
    <glyph glyph-name="uF01AA" unicode="&#xf01aa;" 
d="M946 489q-6 18 -24 21l-263 40l-118 252q-8 18 -28 18t-28 -18l-119 -251l-264 -40q-19 -3 -24 -21q-2 -5 -2 -11t2.5 -11t6.5 -9l191 -197l-46 -277q-3 -19 13 -30.5t33 -1.5l235 129l235 -130q4 -2 8 -3t7 -1q5 0 9.5 1.5t8.5 4.5q16 11 13 30l-45 277l192 196
q13 14 7 32z" />
    <glyph glyph-name="uF01B6" unicode="&#xf01b6;" 
d="M820.5 691.5q-62.5 62.5 -144 95.5t-164.5 33t-164.5 -33t-143.5 -95q-84 -84 -113.5 -196t0 -224.5t113.5 -195.5q36 -36 78.5 -62.5t88 -42t93.5 -21t96 0t93.5 21t88 42t78.5 62.5q63 62 95.5 143.5t32.5 164t-32.5 164t-95 144zM770 497l-293 -311l-5 -4q-3 -2 -4 -2
l-12 -3q-6 0 -11 2l-4 2q-3 2 -5 4h-1l-1 1l-166 164q-9 9 -9 21q1 13 9 22q8 8 21 8.5t22 -8.5l144 -142l271 288q5 5 13 7.5t16 0.5t13 -7q5 -4 7.5 -9.5t2.5 -11.5q0 -13 -8 -22z" />
    <glyph glyph-name="uF01CE" unicode="&#xf01ce;" 
d="M818 764h-617q-47 0 -72 -42q-11 -21 -12 -44v-588q0 -36 25 -61t59 -25h617q35 0 59.5 25t24.5 61v342v10v236q0 36 -24.5 61t-59.5 25zM516 570l-271 139h546zM848 442v-10v-338q0 -7 -2.5 -13.5t-7.5 -11t-11 -7.5t-13 -3h-609q-14 0 -24 10.5t-10 24.5v580q0 3 2 10
l330 -170l3 -2h2h1q3 -1 7 -1v0q5 0 10 2h1h1l320 161v-232zM623 289h7v2q15 5 15 21q0 9 -6.5 15.5t-15.5 6.5h-86v19l90 88l4 4v1q1 1 1.5 3t1 3.5t0.5 3.5q0 5 -1.5 9t-4.5 7q-6 7 -15 7.5t-16 -5.5l-82 -81l-87 85q-6 6 -15.5 5.5t-15.5 -7.5q-11 -12 -2 -26l-1 -1
l98 -96v-19h-86h-7v-1q-15 -5 -15 -21q0 -8 4.5 -13.5t10.5 -8.5v-1h93v-34h-93v-1q-7 -2 -11 -8t-4 -13q0 -16 15 -21v-1h93v-85v-7h1q5 -15 21 -15h5q2 0 3.5 1t3.5 2t3.5 2t2.5 2.5t2 3.5l2 4h1v92h86h7v1q6 2 10.5 8t4.5 13q0 9 -6.5 15.5t-15.5 6.5h-86v34h86z" />
    <glyph glyph-name="uF01CF" unicode="&#xf01cf;" 
d="M512 523q-38 0 -69.5 -18.5t-50 -50t-18.5 -69.5q0 -57 40.5 -97t97.5 -40t97.5 40t40.5 97t-40.5 97.5t-97.5 40.5zM830 731h-11h-23q-14 0 -36.5 -0.5t-48.5 -0.5q-94 0 -180 2h-1q-5 2 -23 14q-32 22 -49 22h-143q-19 0 -54 -23q-16 -11 -20 -13h-51
q-42 0 -71.5 -29.5t-29.5 -71.5v-464q0 -42 29.5 -71.5t71.5 -29.5h222l100 -80l100 80h222q27 0 50.5 13.5t37 37t13.5 50.5v181v16v267q0 27 -14.5 50.5t-39 36.5t-51.5 13zM512 193q-39 0 -74.5 15.5t-61.5 41t-41 61t-15 74.5q0 53 25.5 97t70 69.5t96.5 25.5t96 -25.5
t70 -69.5t26 -97q0 -79 -56.5 -135.5t-135.5 -56.5zM781 535q-10 0 -19 4t-15.5 10.5t-10.5 15.5t-4 19q0 20 14.5 34t34.5 14q13 0 24 -6.5t18 -17.5t7 -24q0 -20 -14.5 -34.5t-34.5 -14.5z" />
    <glyph glyph-name="uF01D1" unicode="&#xf01d1;" 
d="M915 689q-24 26 -59 26h-608l-2 14q-4 32 -29.5 54.5t-57.5 22.5h-39q-3 0 -5.5 -0.5t-5 -1.5t-5 -2.5t-4.5 -3.5t-3.5 -4.5t-2.5 -5t-1.5 -5.5t-0.5 -6q0 -12 8 -20.5t20 -8.5h39q11 0 19.5 -8t10.5 -20l29 -168l51 -362q3 -21 15 -38.5t31 -28t40 -10.5h491q8 0 14.5 4
t10.5 10.5t4 14.5q0 12 -8.5 20.5t-20.5 8.5h-491q-7 0 -13 3.5t-10.5 10t-5.5 13.5l-4 30l481 36q16 0 31 6t26.5 16t19 24t9.5 30l47 273q6 45 -21 76zM363 80q-25 0 -42 -17.5t-17 -41.5t17 -41.5t41.5 -17.5t42 17.5t17.5 41.5q0 37 -33 53q-13 6 -26 6zM786 80
q-24 0 -41.5 -17.5t-17.5 -41.5t17.5 -41.5t42 -17.5t41.5 17.5t17 41.5q0 10 -3 19t-8.5 16t-12.5 12.5t-16 8.5t-19 3z" />
    <glyph glyph-name="uF01D3" unicode="&#xf01d3;" 
d="M630 533l-60 -59l1 -1l-31 -30q-11 4 -23 4q-26 0 -44.5 -18.5t-18.5 -44.5t18.5 -44.5t44.5 -18.5q17 0 31.5 8.5t23 23t8.5 31.5q0 6 -1 11.5t-3 11.5l69 69l21 20l123 -19l149 149l-156 22l-72 -72l73 74l-24 155l-148 -149zM800 445l-13 -17q4 -20 4 -44
q0 -113 -80 -193t-194 -80q-44 0 -86 13.5t-75.5 39t-59 59t-39 75t-13.5 86.5q0 114 80 194.5t193 78.5q28 0 38 -2l120 119q-37 15 -77 23t-81 8q-68 0 -132.5 -21.5t-116 -60.5t-90.5 -90.5t-60.5 -115.5t-21.5 -133q0 -114 56.5 -211t153.5 -153.5t211.5 -56.5t211 56.5
t153 153.5t56.5 211q0 82 -31 158zM517 489q9 0 19 -2l55 54l-10 66q-11 3 -21 5t-21 3t-22 1q-96 0 -164 -68t-68 -164t68 -164t164 -68q47 0 90 18.5t74.5 49.5t49.5 74t18 90q0 10 -1 20t-2.5 20t-4.5 19l-67 14l-54 -54q1 -5 1.5 -9.5t0.5 -9.5q0 -43 -30.5 -74t-74 -31
t-74 31t-30.5 74q0 28 14 52.5t38 38.5t52 14z" />
    <glyph glyph-name="uF01D5" unicode="&#xf01d5;" 
d="M939 412l-381 376q-2 2 -5 4.5t-7 5.5q-7 5 -15 7.5t-17 2.5q-17 0 -32 -10q-8 -5 -12 -11l-380 -375q-11 -10 -11 -24q0 -7 3 -13.5t8 -10.5q19 -19 46 7l25 26l42 40v-390q0 -36 26 -61.5t63 -25.5h149v248q0 15 10 25t25 10h77q15 0 25 -10t10 -25v-248h149
q24 0 44.5 11.5t32.5 32t12 43.5v388l67 -67q18 -11 30 -11q5 0 9 1.5t7 5.5q10 9 10 23.5t-10 24.5z" />
    <glyph glyph-name="uF01F6" unicode="&#xf01f6;" 
d="M509 481q-52 0 -88 -36t-36 -87q0 -33 16.5 -61.5t45 -45t62 -16.5t62 16.5t45 45t16.5 62t-16.5 61.5t-45 44.5t-61.5 16.5zM935 139l-1 -1v4v449q0 22 -15.5 37t-36.5 15h-157h-2l-1 2l-20 41q-2 4 -5.5 10t-10.5 16t-16.5 16.5t-19.5 6.5h-278q-13 0 -26 -13
t-18 -21.5t-7 -14.5l-21 -41l-1 -2h-2h-156q-22 0 -37.5 -15t-15.5 -37v-506q0 -22 15.5 -37t37.5 -15h741q21 0 36.5 15t15.5 37v52v1q1 1 2 1h-1zM509 180q-74 0 -126.5 52.5t-52.5 126t52.5 125.5t126.5 52t126 -52t52 -126q0 -48 -23.5 -89t-65 -65t-89.5 -24zM782 489
q-8 0 -15.5 3t-13.5 8.5t-9 13.5t-3 16q0 12 5.5 21.5t15 15t21 5.5t21 -5.5t15 -15t5.5 -21t-5.5 -21t-15 -15t-21.5 -5.5zM873 140z" />
    <glyph glyph-name="uF01FD" unicode="&#xf01fd;" 
d="M934 11l-196 189l2 3q82 101 82 231q0 101 -49.5 186t-134.5 134.5t-185 49.5q-44 0 -85.5 -10t-77.5 -28t-68 -43.5t-57.5 -57.5t-44 -68.5t-28 -78t-9.5 -84.5q0 -100 49.5 -185t134.5 -134.5t186 -49.5q138 0 242 91l3 2l195 -187h2v-1q4 -3 8 -4.5t9 -1.5
q12 0 20.5 8.5t8.5 21.5q0 9 -7 17zM453 124q-129 0 -220 91t-91 219.5t91 219.5t219.5 91t219.5 -91t91 -220q0 -36 -8 -71t-23.5 -65.5t-36.5 -57.5t-48 -48t-57.5 -36.5t-65.5 -23.5t-71 -8z" />
    <glyph glyph-name="uF0207" unicode="&#xf0207;" 
d="M697 760q-32 0 -62 -12.5t-53.5 -34t-39.5 -40t-29 -38.5q-13 20 -28.5 38.5t-39 40t-53.5 34t-62 12.5q-98 0 -167.5 -76.5t-69.5 -184.5q0 -51 30 -114t72 -101q54 -70 176 -173t143 -103q22 0 141.5 101.5t175.5 173.5q28 25 51.5 63t37 79t13.5 74q0 108 -69 184.5
t-167 76.5z" />
    <glyph glyph-name="uF0208" unicode="&#xf0208;" 
d="M697 760q-32 0 -62 -12.5t-53.5 -34t-39.5 -40t-29 -38.5q-13 20 -28.5 38.5t-39 40t-53.5 34t-62 12.5q-98 0 -167.5 -76.5t-69.5 -184.5q0 -51 30 -114t72 -101q54 -70 176 -173t143 -103q22 0 141.5 101.5t175.5 173.5q28 25 51.5 63t37 79t13.5 74q0 108 -69 184.5
t-167 76.5zM878 499q0 -27 -11.5 -60t-31.5 -64.5t-43 -51.5q-1 -2 -3 -4q-46 -60 -127 -130.5t-148 -118.5q-193 141 -276 250q-2 1 -4 3q-34 31 -59.5 83t-25.5 93q0 85 53 145.5t128 60.5q30 0 61.5 -21t55.5 -51t41 -67q7 -14 25 -14t26 14q17 37 41 67t55.5 51t61.5 21
t57.5 -10.5t49.5 -29.5t38.5 -44.5t26 -57t9.5 -64.5z" />
    <glyph glyph-name="uF0215" unicode="&#xf0215;" 
d="M879 115l-141 265q7 11 13 24l2 3q8 17 13 32l2 9q12 39 12 77q0 73 -36 136t-97 99.5t-134 36.5q-110 0 -188 -80t-78 -192q0 -19 2.5 -37.5t7.5 -36.5t12.5 -35t16.5 -33l-143 -268q-9 -16 2 -30t28 -9l111 29l42 -116q2 -5 5.5 -9t8 -6t9.5 -3h2q16 0 23 14l137 255
l136 -255q8 -14 23 -14h2q6 1 10.5 3t8 6t4.5 9l42 116l111 -29l7 -1q13 0 21 10q11 14 3 30zM322 336q28 -30 63 -50t74 -28l-103 -194l-30 83q-6 18 -25 18q-3 0 -7 -1l-75 -20zM719 468q-3 -10 -7 -21q-3 -10 -8 -20l-3 -5q-9 -19 -20.5 -35.5t-33.5 -37t-48 -32.5l-2 -2
q-10 -4 -18 -5q-7 -2 -15.5 -2.5t-16 -1t-18.5 -0.5h-16q-34 0 -66.5 11t-58.5 31.5t-46 47t-30.5 60t-10.5 69.5q0 59 28.5 109t77.5 79.5t106.5 29.5t106.5 -29.5t77.5 -79.5t28.5 -109q0 -10 -0.5 -19.5t-2.5 -19t-4 -18.5zM662 296q2 2 7 6h3l1 4q7 5 14 12t15 16
l100 -190l-75 20q-5 2 -10 1t-9.5 -3t-7.5 -6t-5 -9l-30 -83l-102 192q20 3 38.5 9t34 14t26.5 17zM617 584h-65v-151h37v51h26q56 1 57 52q-1 20 -13.5 33.5t-41.5 14.5zM589 552h23q22 0 23 -17q0 -18 -23 -19h-23v36zM502 584h-37l-2 -5q-21 -59 -35 -98q-12 32 -36 98
l-1 5h-39l59 -151h34l57 146v-146h36v151h-34h-2z" />
    <glyph glyph-name="uF021D" unicode="&#xf021d;" 
d="M810.5 682.5q-60.5 60.5 -139.5 92t-159 31.5t-159 -31.5t-139 -92.5q-81 -81 -110 -189.5t0 -217t110 -189.5t189.5 -110t217 0t189.5 110q61 60 92.5 139t31.5 159t-31.5 159t-92 139.5zM767.5 128.5q-69.5 -69.5 -162.5 -94t-186 0t-162.5 94t-94 162.5t0 186
t94 162.5t162.5 94t186 0t162.5 -94t94 -162.5t0 -186t-94 -162.5zM721 375h-206v227q0 12 -8 20t-19 8q-6 0 -11 -2t-8.5 -6t-6 -9t-2.5 -11v-235q0 -21 13 -34q3 -3 6.5 -5.5t8 -4.5t9.5 -2.5t11 -0.5h213q12 0 20 8t8 19t-8 19t-20 9z" />
  </font>
</defs>
</svg>
